<svg width="300" height="300" viewBox="0 0 225 225" xmlns="http://www.w3.org/2000/svg">
  <g fill="#b62127">
    <path d="M0 0h225v225H0zm41.77 69.05q-.09 43.98 0 87.96c.27 14.75 13.51 27.54 28.21 27.61 38.15.11 76.31.03 114.46.05.03-37.9 0-75.79.02-113.68.1-5.84-1.62-11.7-4.91-16.52-5.28-8.1-14.9-13.03-24.55-12.85-28.33.03-56.66-.04-85 .03-14.64 0-27.82 12.75-28.23 27.4"/>
    <path d="M62.13 50.83c4.97-2.32 10.61-1.68 15.92-1.77 21.68-.06 43.36-.01 65.03-.04 6.77.38 13.86-1.05 20.35 1.54 6.59 2.57 11.66 8.59 13.15 15.49.77 3.62.51 7.34.54 11.02-.01 33.36 0 66.72-.01 100.08-35.71.05-71.43.02-107.14.02-11.06-.11-20.99-10.07-20.81-21.18 0-28.67-.01-57.34.01-86.01.01-8.22 5.48-15.94 12.96-19.15m18.3 22.56c-6.47 5.33-8.57 14.13-8.42 22.18 9.47.06 18.93-.21 28.4-.12.98-3.53 2.79-7.22 6.46-8.56 4.37-1.55 10.08-1.98 13.65 1.54 2.47 2.28 2.79 5.79 3.12 8.94-11.59 1.32-23.27 2.62-34.48 6-6.53 1.96-12.75 5.58-16.87 11.13-5.89 7.76-6.18 19.1-1.14 27.37 3.99 6.71 11.16 11.12 18.72 12.65 5.96.93 12.17.99 18.07-.41 7.25-1.75 14.81-6.64 15.93-14.6-11.36-.13-22.72.21-34.08-.27-1.68-4.62-2.53-9.47-3.8-14.21-.65-2.66-1.59-5.35-1.2-8.13 15.72-.79 31.45-1.27 47.18-2.08.87-1.69 1.15-3.93 2.75-5.09 3.31-1.12 6.84-1.63 10.32-1.83.15.53.47 1.58.62 2.11-2.55 2.16-6.33.98-9.09 2.63-3.6 10.18-6.52 20.6-9.95 30.83-1.34 3.25-.41 6.73-.09 10.07 9.65.06 19.3.02 28.94.02-.02-19.53.08-39.06-.04-58.6-.09-7.94-2.33-16.46-8.83-21.57-9.52-8.24-22.82-8.1-34.68-8.03-10.85.03-22.81.69-31.49 8.03m42.99 85.12c-4.1 1.02-4.79 7.3-1.11 9.25 2.95 2.11 7.35-.3 7.64-3.77.58-3.48-3.21-6.6-6.53-5.48m-30.07.77c-2.49 1.26-3.33 4.78-1.71 7.06 1.94 3.32 7.61 2.66 8.67-1.07 1.77-3.93-3.29-8.38-6.96-5.99"/>
  </g>
  <g fill="#fff">
    <path d="M41.77 69.05c.41-14.65 13.59-27.4 28.23-27.4 28.34-.07 56.67 0 85-.03 9.65-.18 19.27 4.75 24.55 12.85 3.29 4.82 5.01 10.68 4.91 16.52-.02 37.89.01 75.78-.02 113.68-38.15-.02-76.31.06-114.46-.05-14.7-.07-27.94-12.86-28.21-27.61q-.09-43.98 0-87.96m20.36-18.22c-7.48 3.21-12.95 10.93-12.96 19.15-.02 28.67-.01 57.34-.01 86.01-.18 11.11 9.75 21.07 20.81 21.18 35.71 0 71.43.03 107.14-.02.01-33.36 0-66.72.01-100.08-.03-3.68.23-7.4-.54-11.02-1.49-6.9-6.56-12.92-13.15-15.49-6.49-2.59-13.58-1.16-20.35-1.54-21.67.03-43.35-.02-65.03.04-5.31.09-10.95-.55-15.92 1.77"/>
    <path d="M80.43 73.39c8.68-7.34 20.64-8 31.49-8.03 11.86-.07 25.16-.21 34.68 8.03 6.5 5.11 8.74 13.63 8.83 21.57.12 19.54.02 39.07.04 58.6-9.64 0-19.29.04-28.94-.02-.32-3.34-1.25-6.82.09-10.07 3.43-10.23 6.35-20.65 9.95-30.83 2.76-1.65 6.54-.47 9.09-2.63-.15-.53-.47-1.58-.62-2.11-3.48.2-7.01.71-10.32 1.83-1.6 1.16-1.88 3.4-2.75 5.09-15.73.81-31.46 1.29-47.18 2.08-.39 2.78.55 5.47 1.2 8.13 1.27 4.74 2.12 9.59 3.8 14.21 11.36.48 22.72.14 34.08.27-1.12 7.96-8.68 12.85-15.93 14.6-5.9 1.4-12.11 1.34-18.07.41-7.56-1.53-14.73-5.94-18.72-12.65-5.04-8.27-4.75-19.61 1.14-27.37 4.12-5.55 10.34-9.17 16.87-11.13 11.21-3.38 22.89-4.68 34.48-6-.33-3.15-.65-6.66-3.12-8.94-3.57-3.52-9.28-3.09-13.65-1.54-3.67 1.34-5.48 5.03-6.46 8.56-9.47-.09-18.93.18-28.4.12-.15-8.05 1.95-16.85 8.42-22.18m42.99 85.12c3.32-1.12 7.11 2 6.53 5.48-.29 3.47-4.69 5.88-7.64 3.77-3.68-1.95-2.99-8.23 1.11-9.25m-30.07.77c3.67-2.39 8.73 2.06 6.96 5.99-1.06 3.73-6.73 4.39-8.67 1.07-1.62-2.28-.78-5.8 1.71-7.06"/>
  </g>
</svg>
