<?xml version="1.0" encoding="UTF-8" standalone="no"?>
<!-- Created with Inkscape (http://www.inkscape.org/) -->
<svg
   xmlns:svg="http://www.w3.org/2000/svg"
   xmlns="http://www.w3.org/2000/svg"
   version="1.0"
   width="600"
   height="240"
   id="svg5654">
  <defs
     id="defs5656">
    <clipPath
       id="clipPath6097">
      <path
         d="M 0,0 L 653.622,0 L 653.622,900.236 L 0,900.236 L 0,0 z"
         id="path6099" />
    </clipPath>
    <clipPath
       id="clipPath5911">
      <path
         d="M 0,0 L 653.622,0 L 653.622,900.236 L 0,900.236 L 0,0 z"
         id="path5913" />
    </clipPath>
    <clipPath
       id="clipPath5745">
      <path
         d="M 97.82,639.393 L 555.344,639.393 L 555.344,814.326 L 97.82,814.326 L 97.82,639.393 z"
         id="path5747" />
    </clipPath>
    <clipPath
       id="clipPath5733">
      <path
         d="M 15,15 L 638.622,15 L 638.622,885.236 L 15,885.236 L 15,15 z"
         id="path5735" />
    </clipPath>
    <clipPath
       id="clipPath5719">
      <path
         d="M 15,15 L 638.622,15 L 638.622,885.236 L 15,885.236 L 15,15 z"
         id="path5721" />
    </clipPath>
  </defs>
  <g
     transform="matrix(1.25,0,0,-1.25,208.28787,205.30062)"
     id="g5749">
    <path
       d="M 0,0 C 2.106,-0.142 2.987,-0.284 3.981,-0.682 C 7.026,-1.906 7.907,-4.72 8.163,-5.774 C 8.476,-7.024 8.476,-7.934 8.476,-8.447 C 8.476,-9.441 8.447,-12.457 6.485,-14.846 C 5.063,-16.525 3.271,-17.235 1.137,-17.435 C 0.569,-17.462 0.029,-17.491 -0.54,-17.491 C -1.08,-17.491 -1.621,-17.491 -2.19,-17.462 C -3.014,-17.435 -3.867,-17.377 -4.722,-17.293 C -4.778,-16.781 -4.807,-16.268 -4.834,-15.756 C -4.864,-14.875 -4.834,-13.964 -4.834,-13.082 C -4.807,-11.062 -4.864,-9.073 -4.864,-7.082 C -4.864,-4.749 -4.807,-2.446 -4.749,-0.114 L 0,0 z M -0.54,1.337 C -1.99,1.309 -3.413,1.223 -4.834,1.223 C -5.83,1.223 -6.827,1.281 -7.821,1.337 C -7.766,-0.227 -7.707,-1.792 -7.681,-3.356 C -7.622,-5.176 -7.595,-6.996 -7.595,-8.816 C -7.595,-10.579 -7.595,-12.314 -7.65,-14.078 C -7.681,-15.642 -7.766,-17.207 -7.907,-18.742 C -6.883,-18.714 -5.888,-18.686 -4.893,-18.714 C -3.669,-18.742 -2.502,-18.8 -1.308,-18.828 C -0.454,-18.856 0.398,-18.8 1.252,-18.771 C 1.735,-18.742 3.555,-18.629 5.148,-18.06 C 7.082,-17.377 8.361,-16.24 8.902,-15.699 C 10.012,-14.59 11.719,-12.286 11.719,-8.304 C 11.719,-4.179 9.784,-1.876 8.533,-0.825 C 6.4,0.968 3.839,1.166 2.901,1.252 L 1.621,1.337 L -0.54,1.337 z"
       id="path5751"
       style="fill:#a19562;fill-opacity:1;fill-rule:evenodd;stroke:none" />
  </g>
  <g
     transform="matrix(1.25,0,0,-1.25,231.998,205.76187)"
     id="g5753">
    <path
       d="M 0,0 C 1.081,0 2.161,0.029 3.242,0.029 C 4.693,0 6.143,-0.114 7.594,-0.256 C 7.48,0.569 7.509,0.796 7.737,1.592 C 5.546,1.479 3.385,1.337 1.166,1.337 C -0.228,1.337 -1.65,1.422 -3.045,1.507 C -2.758,-0.456 -2.873,-0.882 -2.843,-2.047 C -2.816,-3.186 -2.788,-4.295 -2.788,-5.405 C -2.788,-7.51 -2.816,-9.584 -2.843,-11.661 C -2.843,-12.486 -2.843,-13.31 -2.873,-14.136 C -2.873,-14.79 -2.843,-15.472 -2.873,-16.127 C -2.902,-16.924 -2.987,-17.663 -3.045,-18.431 C -1.593,-18.373 -0.171,-18.345 1.279,-18.345 C 3.527,-18.345 5.745,-18.431 7.963,-18.544 C 7.878,-18.004 7.849,-17.919 7.849,-17.606 C 7.849,-17.236 7.907,-16.924 7.935,-16.78 C 7.082,-16.81 6.257,-16.866 5.404,-16.895 C 3.584,-16.952 1.791,-16.952 -0.028,-16.952 L -0.028,-8.561 C 0.54,-8.504 1.138,-8.476 1.735,-8.476 C 2.275,-8.476 2.816,-8.504 3.355,-8.504 C 4.124,-8.532 4.864,-8.532 5.603,-8.59 C 6.058,-8.617 6.513,-8.674 6.996,-8.759 C 6.912,-7.935 6.912,-7.707 7.053,-6.912 C 6.4,-6.968 5.717,-7.081 5.062,-7.11 C 4.608,-7.14 4.181,-7.14 3.726,-7.14 C 2.503,-7.14 1.251,-7.14 0.028,-7.167 L 0,0 z"
       id="path5755"
       style="fill:#a19562;fill-opacity:1;fill-rule:nonzero;stroke:none" />
  </g>
  <g
     transform="matrix(1.25,0,0,-1.25,250.42925,205.263)"
     id="g5757">
    <path
       d="M 0,0 C 2.788,0.114 4.01,0.085 5.233,-0.655 C 6.428,-1.451 6.94,-2.618 6.94,-4.04 C 6.94,-5.12 6.598,-6.201 5.915,-7.054 C 4.779,-8.477 3.299,-8.675 0,-8.59 L 0,0 z M -2.844,-1.707 C -2.759,-3.898 -2.759,-6.059 -2.759,-8.221 C -2.759,-10.24 -2.73,-12.258 -2.788,-14.278 C -2.816,-15.786 -2.93,-17.294 -3.072,-18.801 C -2.475,-18.716 -2.02,-18.629 -1.394,-18.629 C -0.91,-18.629 -0.598,-18.687 0.284,-18.83 C 0.256,-18.346 0.199,-17.861 0.142,-17.38 C 0.085,-16.555 0.085,-15.701 0.085,-14.876 C 0.057,-13.198 0.028,-11.491 0.028,-9.813 C 0.625,-9.841 1.251,-9.87 1.848,-9.87 C 3.811,-9.898 6.314,-9.415 7.935,-8.165 C 9.244,-7.139 10.04,-5.547 10.04,-3.869 C 10.04,-2.446 9.557,-1.48 9.272,-1.053 C 8.704,-0.115 7.594,0.938 5.12,1.193 C 4.721,1.251 4.323,1.251 3.896,1.279 C 2.588,1.251 1.308,1.193 0,1.193 C -0.996,1.193 -2.02,1.222 -3.016,1.279 L -2.844,-1.707 z"
       id="path5759"
       style="fill:#a19562;fill-opacity:1;fill-rule:evenodd;stroke:none" />
  </g>
  <g
     transform="matrix(1.25,0,0,-1.25,285.48037,205.65563)"
     id="g5761">
    <path
       d="M 0,0 C 0.086,-2.162 0.199,-4.323 0.199,-6.484 C 0.199,-7.964 0.143,-9.414 0.115,-10.864 C 0,-12.259 -0.113,-12.912 -0.34,-13.538 C -0.823,-14.904 -2.36,-17.378 -6.087,-17.378 C -9.64,-17.378 -11.063,-15.187 -11.518,-13.794 C -11.974,-12.514 -12.029,-10.778 -12.059,-10.437 C -12.087,-8.219 -12.145,-6 -12.087,-3.811 C -12.059,-2.048 -11.944,-0.257 -11.803,1.507 C -12.342,1.48 -12.883,1.45 -13.395,1.45 C -13.992,1.45 -14.563,1.507 -15.131,1.536 C -15.072,0.284 -14.988,-0.967 -14.961,-2.247 C -14.903,-3.414 -14.931,-4.551 -14.931,-5.717 C -14.931,-7.595 -14.931,-9.471 -14.961,-11.348 C -14.846,-13.253 -14.732,-13.992 -14.334,-14.904 C -14.192,-15.216 -13.907,-15.871 -13.309,-16.525 C -11.119,-18.914 -7.422,-18.942 -6.684,-18.942 C -3.412,-18.942 -1.706,-18.004 -0.568,-17.009 C 0.199,-16.325 1.281,-15.046 1.707,-12.571 C 1.793,-12.03 1.821,-11.49 1.878,-10.949 C 1.906,-10.067 1.906,-9.157 1.935,-8.276 C 1.964,-6.456 1.964,-4.608 2.049,-2.788 C 2.105,-1.338 2.247,0.086 2.391,1.507 C 1.964,1.48 1.537,1.45 1.11,1.45 C 0.684,1.45 0.256,1.48 -0.17,1.536 L 0,0 z"
       id="path5763"
       style="fill:#a19562;fill-opacity:1;fill-rule:nonzero;stroke:none" />
  </g>
  <g
     transform="matrix(1.25,0,0,-1.25,298.188,203.77174)"
     id="g5765">
    <path
       d="M 0,0 C -0.598,-0.057 -1.024,-0.113 -1.65,-0.113 C -2.163,-0.113 -2.447,-0.085 -3.329,0.029 C -3.271,-0.598 -3.214,-1.252 -3.186,-1.905 C -3.072,-3.526 -3.044,-5.205 -3.044,-6.855 C -3.044,-7.935 -3.072,-8.987 -3.072,-10.039 C -3.072,-11.775 -3.072,-13.509 -3.102,-15.244 C -3.102,-16.865 -3.186,-18.458 -3.299,-20.051 C -2.389,-19.937 -2.105,-19.909 -1.594,-19.909 C -1.024,-19.909 -0.455,-19.965 0.113,-20.023 C 0.028,-19.198 -0.057,-18.372 -0.114,-17.52 C -0.199,-16.183 -0.199,-14.846 -0.199,-13.481 C -0.228,-11.546 -0.256,-9.612 -0.256,-7.679 C -0.256,-6.627 -0.256,-5.574 -0.228,-4.494 C -0.171,-3.015 -0.086,-1.507 0,0"
       id="path5767"
       style="fill:#a19562;fill-opacity:1;fill-rule:nonzero;stroke:none" />
  </g>
  <g
     transform="matrix(1.25,0,0,-1.25,303.69037,223.96424)"
     id="g5769">
    <path
       d="M 0,0 C -0.114,-1.224 -0.172,-1.394 -0.597,-2.56 C 0.625,-3.357 1.792,-4.209 4.779,-4.209 C 5.432,-4.209 7.225,-4.209 8.931,-3.215 C 9.838,-2.674 12.061,-0.995 12.087,2.161 C 12.087,3.555 11.603,5.034 10.639,5.945 C 9.357,7.196 7.027,7.764 5.461,8.419 C 4.038,8.988 3.357,9.5 2.901,10.096 C 2.701,10.353 2.246,11.035 2.246,11.974 C 2.246,13.139 3.1,15.245 5.945,15.245 C 7.85,15.245 8.819,14.42 9.273,13.85 C 9.587,13.481 9.982,12.827 10.011,12.77 L 10.383,12.742 C 10.696,14.078 10.866,14.448 11.177,15.131 C 10.127,15.699 9.33,16.097 8.19,16.297 C 7.51,16.41 6.741,16.41 6.542,16.41 C 3.783,16.41 2.39,15.643 1.479,14.789 C -0.085,13.339 -0.284,11.605 -0.284,10.779 C -0.284,8.988 0.597,7.508 2.075,6.599 C 2.731,6.202 3.783,5.717 5.432,5.091 C 6.457,4.693 7.48,4.408 8.334,3.641 C 9.416,2.703 9.529,1.564 9.529,0.995 C 9.529,-0.342 8.789,-2.958 5.348,-2.987 C 4.466,-2.987 3.813,-2.816 3.497,-2.702 C 2.105,-2.276 1.451,-1.479 1.08,-1.024 C 0.824,-0.711 0.597,-0.37 0.341,0 L 0,0 z"
       id="path5771"
       style="fill:#a19562;fill-opacity:1;fill-rule:nonzero;stroke:none" />
  </g>
  <g
     transform="matrix(1.25,0,0,-1.25,340.48912,203.7355)"
     id="g5773">
    <path
       d="M 0,0 C -0.425,-0.341 -0.883,-0.627 -1.309,-0.938 C -1.791,-1.222 -2.276,-1.536 -2.759,-1.82 L -6.912,-3.868 L -9.13,-4.721 L -7.766,-6.001 C -7.282,-5.659 -6.796,-5.347 -6.314,-5.035 C -5.119,-4.266 -3.867,-3.555 -2.59,-2.874 C -2.56,-4.236 -2.53,-5.603 -2.502,-6.939 C -2.502,-9.273 -2.56,-11.603 -2.56,-13.936 C -2.56,-17.492 -2.447,-17.777 -2.787,-19.966 C -2.59,-19.966 -1.877,-19.825 -1.223,-19.825 C -0.712,-19.825 -0.171,-19.909 0.312,-19.994 C 0.258,-18.573 0.227,-17.122 0.199,-15.7 C 0.172,-13.51 0.14,-11.348 0.14,-9.158 C 0.14,-7.367 0.14,-5.603 0.172,-3.84 C 0.199,-2.617 0.258,-1.422 0.342,-0.227 L 0,0 z"
       id="path5775"
       style="fill:#a19562;fill-opacity:1;fill-rule:nonzero;stroke:none" />
  </g>
  <g
     transform="matrix(1.25,0,0,-1.25,351.29038,209.45799)"
     id="g5777">
    <path
       d="M 0,0 C 0.088,2.103 0.998,2.929 1.85,3.27 C 1.994,3.297 2.448,3.47 2.96,3.47 C 3.871,3.47 4.412,3.072 4.695,2.843 C 5.663,2.075 5.861,1.051 5.861,-0.171 C 5.889,-2.078 5.037,-3.016 4.353,-3.414 C 3.927,-3.67 3.387,-3.841 2.875,-3.841 C 2.193,-3.841 1.622,-3.614 1.111,-3.159 C -0.111,-2.078 -0.026,-0.483 0,0 M -0.765,-9.414 C -0.765,-8.988 -0.709,-6.457 1.025,-5.377 C 1.652,-4.978 2.363,-4.835 3.13,-4.835 C 3.842,-4.835 4.269,-4.978 4.525,-5.091 C 5.123,-5.377 5.494,-5.775 5.633,-5.975 C 6.174,-6.571 6.799,-7.68 6.799,-9.585 C 6.799,-12.06 5.777,-13.51 4.953,-14.079 C 4.213,-14.592 3.416,-14.649 3.075,-14.649 C 1.907,-14.649 1.111,-14.109 0.768,-13.823 C 0.287,-13.397 0.059,-13.027 -0.084,-12.8 C -0.624,-11.833 -0.794,-10.524 -0.765,-9.414 M 1.081,-4.21 C -0.084,-4.608 -0.624,-4.835 -1.165,-5.15 C -3.523,-6.542 -3.666,-8.875 -3.666,-9.813 C -3.666,-12.515 -2.188,-14.563 0.343,-15.36 C 1.424,-15.701 2.448,-15.701 2.875,-15.701 C 3.757,-15.701 6.515,-15.616 8.335,-13.483 C 9.246,-12.402 9.787,-10.95 9.787,-9.472 C 9.787,-9.073 9.757,-8.164 9.305,-7.167 C 8.934,-6.286 8.196,-5.15 6.089,-4.494 C 5.747,-4.381 5.349,-4.267 4.981,-4.183 C 6.401,-3.585 7.511,-3.101 8.223,-1.595 C 8.565,-0.853 8.619,-0.171 8.619,0.141 C 8.619,0.768 8.507,1.278 8.279,1.819 C 8.164,2.075 7.911,2.644 7.339,3.156 C 6.258,4.123 4.44,4.464 3.018,4.464 C 0.088,4.464 -1.306,3.326 -2.018,2.217 C -2.642,1.278 -2.728,0.342 -2.728,-0.086 C -2.728,-0.912 -2.473,-1.566 -2.331,-1.85 C -1.449,-3.783 0.457,-4.068 1.081,-4.21"
       id="path5779"
       style="fill:#a19562;fill-opacity:1;fill-rule:evenodd;stroke:none" />
  </g>
  <g
     transform="matrix(1.25,0,0,-1.25,368.63912,219.59063)"
     id="g5781">
    <path
       d="M 0,0 C 1.196,1.791 2.389,3.612 3.614,5.403 C 4.582,6.797 5.577,8.161 6.601,9.526 L 6.601,0 L 0,0 z M 8.99,0.056 C 8.99,1.706 8.99,3.356 9.018,5.005 C 9.018,7.45 9.077,9.868 9.132,12.315 C 8.565,12.258 8.25,12.229 7.966,12.229 C 7.624,12.229 7.284,12.258 6.942,12.286 L -2.217,-1.111 L -2.217,-1.907 L 6.543,-1.907 L 6.543,-4.068 C 6.514,-5.177 6.458,-6.287 6.402,-7.396 C 6.913,-7.339 7.225,-7.282 7.766,-7.282 C 8.25,-7.282 8.393,-7.31 9.159,-7.396 C 9.132,-6.543 9.077,-5.661 9.048,-4.78 C 9.018,-3.841 9.018,-2.873 8.99,-1.907 C 9.5,-1.907 10.013,-1.878 10.527,-1.878 C 11.179,-1.878 11.494,-2.02 11.779,-2.134 C 11.691,-1.479 11.663,-1.338 11.663,-0.967 C 11.663,-0.626 11.691,-0.286 11.746,0.056 L 8.99,0.056 z"
       id="path5783"
       style="fill:#a19562;fill-opacity:1;fill-rule:evenodd;stroke:none" />
  </g>
  <g
     transform="matrix(1.25,0,0,-1.25,386.27037,224.92425)"
     id="g5785">
    <path
       d="M 0,0 C 0.03,-0.967 0,-1.223 -0.339,-2.162 C 1.537,-3.129 2.277,-3.384 4.296,-3.384 C 5.35,-3.384 5.974,-3.299 6.455,-3.186 C 9.53,-2.504 11.974,-0.057 11.974,3.3 C 11.974,6.656 9.586,7.964 8.449,8.39 C 7.454,8.759 6.571,8.788 6.203,8.788 C 4.637,8.788 3.044,8.163 2.648,8.021 L 2.648,14.192 C 3.785,14.22 4.921,14.278 6.06,14.306 C 7.708,14.334 9.359,14.278 10.979,14.22 C 10.95,14.59 10.895,15.046 10.895,15.415 C 10.895,15.785 10.925,15.984 11.038,16.667 C 8.789,16.525 6.543,16.382 4.267,16.382 C 3.13,16.382 1.992,16.439 0.883,16.525 L 1.137,14.59 C 1.224,13.141 1.339,11.662 1.339,10.21 C 1.339,8.959 1.253,7.736 1.196,6.485 L 1.621,6.258 C 2.648,6.939 3.412,7.424 4.694,7.424 C 6.4,7.424 7.936,6.398 8.591,4.75 C 8.902,3.953 8.931,3.214 8.931,2.901 C 8.931,2.133 8.704,-0.797 6.23,-1.877 C 5.434,-2.219 4.694,-2.247 4.354,-2.247 C 3.785,-2.247 2.36,-2.132 1.196,-1.024 C 0.711,-0.569 0.342,-0.029 0.201,0.142 L 0,0 z"
       id="path5787"
       style="fill:#a19562;fill-opacity:1;fill-rule:nonzero;stroke:none" />
  </g>
  <g
     transform="matrix(1.25,0,0,-1.25,74.05788,164.87438)"
     id="g5789">
    <path
       d="M 0,0 C -0.824,-1.622 -1.621,-3.27 -2.474,-4.893 C -3.327,-6.541 -4.18,-8.161 -5.033,-9.811 C -5.716,-11.12 -6.37,-12.456 -7.082,-13.736 C -7.451,-14.42 -7.85,-15.045 -8.247,-15.699 C -9.13,-14.192 -10.039,-12.656 -10.893,-11.12 C -11.86,-9.385 -12.799,-7.651 -13.765,-5.887 C -14.391,-4.722 -15.074,-3.555 -15.699,-2.36 C -16.097,-1.592 -16.496,-0.768 -16.837,0.029 C -17.462,-0.056 -17.605,0 -17.975,0.029 C -18.657,-5.546 -19.312,-11.148 -20.279,-16.636 C -20.506,-17.861 -20.734,-19.026 -20.989,-20.249 C -20.393,-20.136 -20.25,-20.136 -19.908,-20.136 C -19.312,-20.136 -18.799,-20.279 -18.6,-20.334 C -18.516,-18.799 -18.457,-17.234 -18.315,-15.699 C -18.201,-14.078 -18.031,-12.485 -17.832,-10.864 C -17.662,-9.043 -17.462,-7.223 -17.264,-5.404 C -16.24,-7.28 -15.188,-9.186 -14.135,-11.064 C -13.253,-12.656 -12.315,-14.277 -11.49,-15.898 C -10.722,-17.376 -10.069,-18.856 -9.413,-20.364 L -8.561,-20.364 C -8.333,-19.738 -8.105,-19.112 -7.85,-18.515 C -7.564,-17.889 -7.28,-17.293 -6.968,-16.667 C -5.09,-12.827 -3.1,-8.986 -1.108,-5.148 C -0.71,-8.105 -0.313,-11.064 -0.027,-14.021 C 0.171,-16.126 0.313,-18.203 0.427,-20.307 C 1.281,-20.164 1.536,-20.136 2.02,-20.136 C 2.532,-20.136 2.931,-20.193 3.898,-20.393 C 3.756,-19.71 3.584,-19.026 3.471,-18.344 C 3.3,-17.32 3.216,-16.268 3.045,-15.244 C 2.901,-14.078 2.703,-12.911 2.561,-11.746 C 2.304,-9.87 2.077,-7.962 1.822,-6.087 C 1.678,-4.863 1.48,-3.641 1.338,-2.417 C 1.252,-1.622 1.195,-0.796 1.138,0 L 0,0 z"
       id="path5791"
       style="fill:#a19562;fill-opacity:1;fill-rule:nonzero;stroke:none" />
  </g>
  <g
     transform="matrix(1.25,0,0,-1.25,87.31912,178.95312)"
     id="g5793">
    <path
       d="M 0,0 C 0.54,1.309 1.052,2.589 1.621,3.898 C 2.104,5.035 2.672,6.144 3.213,7.253 L 6.456,0 L 0,0 z M 3.327,11.122 C 2.872,9.956 2.389,8.818 1.876,7.681 C 1.193,6.115 0.483,4.58 -0.2,3.016 C -1.139,0.883 -2.049,-1.251 -2.988,-3.383 C -3.869,-5.261 -4.778,-7.138 -5.689,-8.986 C -5.12,-8.93 -4.751,-8.901 -4.495,-8.901 C -4.125,-8.901 -3.898,-8.93 -3.243,-9.044 C -2.504,-6.455 -2.277,-5.659 -0.598,-1.478 C 0.797,-1.421 2.162,-1.364 3.555,-1.364 C 4.72,-1.364 5.887,-1.393 7.053,-1.421 C 8.959,-5.659 9.215,-6.512 10.04,-9.101 C 10.978,-8.93 11.404,-8.873 11.86,-8.873 C 12.401,-8.873 12.77,-8.93 13.737,-9.071 C 13.254,-8.162 12.77,-7.252 12.315,-6.285 C 11.774,-5.119 11.291,-3.896 10.779,-2.701 C 10.125,-1.193 9.441,0.286 8.759,1.821 C 8.162,3.158 7.593,4.551 6.967,5.888 C 6.512,6.854 6.029,7.794 5.602,8.732 C 5.261,9.5 4.948,10.297 4.663,11.092 L 3.327,11.122 z"
       id="path5795"
       style="fill:#a19562;fill-opacity:1;fill-rule:evenodd;stroke:none" />
  </g>
  <g
     transform="matrix(1.25,0,0,-1.25,108.21663,157.72674)"
     id="g5797">
    <path
       d="M 0,0 L -3.726,-4.523 L -2.673,-4.523 L 0.625,-1.848 L 3.954,-4.494 L 4.835,-4.494 L 1.507,0 L 0,0 z M 2.39,-6.03 C 1.792,-6.088 1.365,-6.144 0.739,-6.144 C 0.227,-6.144 -0.056,-6.116 -0.938,-6.002 C -0.882,-6.628 -0.824,-7.281 -0.796,-7.935 C -0.681,-9.556 -0.654,-11.235 -0.654,-12.884 C -0.654,-13.965 -0.681,-15.018 -0.681,-16.07 C -0.681,-17.805 -0.681,-19.539 -0.712,-21.275 C -0.712,-22.896 -0.796,-24.487 -0.91,-26.082 C 0,-25.967 0.285,-25.94 0.797,-25.94 C 1.365,-25.94 1.934,-25.997 2.503,-26.052 C 2.417,-25.229 2.332,-24.404 2.275,-23.55 C 2.19,-22.214 2.19,-20.877 2.19,-19.511 C 2.162,-17.577 2.133,-15.644 2.133,-13.71 C 2.133,-12.657 2.133,-11.605 2.162,-10.525 C 2.219,-9.045 2.304,-7.537 2.39,-6.03"
       id="path5799"
       style="fill:#a19562;fill-opacity:1;fill-rule:evenodd;stroke:none" />
  </g>
  <g
     transform="matrix(1.25,0,0,-1.25,133.77037,165.15688)"
     id="g5801">
    <path
       d="M 0,0 C -0.824,-0.086 -1.649,-0.172 -2.474,-0.228 C -3.526,-0.285 -4.579,-0.314 -5.631,-0.314 C -6.997,-0.342 -8.362,-0.342 -9.727,-0.342 C -10.779,-0.342 -11.831,-0.342 -12.883,-0.285 C -13.878,-0.228 -14.874,-0.144 -15.87,-0.058 C -15.757,-0.626 -15.728,-0.826 -15.728,-1.139 C -15.728,-1.396 -15.785,-1.793 -15.812,-2.049 C -14.874,-1.963 -13.935,-1.878 -13.027,-1.821 C -11.775,-1.765 -10.551,-1.765 -9.3,-1.765 C -9.271,-4.552 -9.243,-7.311 -9.243,-10.098 C -9.271,-13.425 -9.357,-16.752 -9.47,-20.053 C -8.646,-19.967 -8.475,-19.938 -7.992,-19.938 C -7.479,-19.938 -7.167,-19.967 -6.2,-20.108 C -6.256,-18.972 -6.342,-17.862 -6.37,-16.725 C -6.456,-14.99 -6.427,-13.226 -6.398,-11.491 C -6.398,-9.755 -6.427,-7.993 -6.427,-6.258 C -6.427,-4.75 -6.37,-3.271 -6.342,-1.765 C -5.346,-1.765 -4.35,-1.793 -3.385,-1.793 C -1.564,-1.821 -1.166,-1.85 -0.086,-2.077 C -0.199,-1.537 -0.227,-1.396 -0.227,-1.109 C -0.227,-0.655 -0.057,-0.114 0,0"
       id="path5803"
       style="fill:#a19562;fill-opacity:1;fill-rule:nonzero;stroke:none" />
  </g>
  <g
     transform="matrix(1.25,0,0,-1.25,140.23412,166.93438)"
     id="g5805">
    <path
       d="M 0,0 C 0.711,0.056 1.394,0.112 2.105,0.112 C 2.787,0.112 3.555,0.056 4.182,-0.115 C 5.119,-0.371 6.911,-1.139 6.911,-3.727 C 6.911,-6.372 4.979,-7.31 4.124,-7.623 C 2.561,-8.163 0.199,-8.022 -0.085,-8.022 C -0.114,-6.798 -0.114,-5.575 -0.114,-4.381 C -0.114,-2.902 -0.057,-1.452 0,0 M -3.073,1.392 C -3.015,0.539 -2.958,-0.343 -2.901,-1.225 C -2.816,-2.817 -2.816,-4.41 -2.816,-6.003 L -2.816,-8.477 C -2.845,-10.24 -2.845,-11.975 -2.901,-13.71 C -2.93,-15.359 -3.073,-17.009 -3.243,-18.686 C -2.702,-18.631 -2.162,-18.574 -1.621,-18.574 C -0.967,-18.574 -0.512,-18.631 0.114,-18.716 C 0.057,-18.005 0,-17.294 -0.028,-16.555 C -0.057,-15.728 -0.057,-14.904 -0.057,-14.051 C -0.057,-12.373 -0.057,-10.665 -0.085,-8.988 L 0.569,-8.874 C 1.992,-10.638 3.413,-12.402 4.778,-14.193 C 5.887,-15.672 6.941,-17.181 7.992,-18.716 C 8.646,-18.631 9.272,-18.574 9.926,-18.574 C 10.609,-18.574 11.262,-18.659 11.944,-18.716 L 11.974,-18.403 C 10.637,-16.895 9.3,-15.359 8.049,-13.794 C 6.683,-12.145 5.404,-10.439 4.096,-8.732 C 5.716,-8.391 7.195,-8.106 8.39,-6.941 C 9.756,-5.604 9.954,-4.068 9.983,-3.386 C 9.983,-2.447 9.641,-1.48 9.1,-0.712 C 7.906,0.995 5.944,1.137 5.261,1.194 C 4.921,1.222 4.55,1.25 4.21,1.25 L -1.28,1.25 L -3.073,1.392 z"
       id="path5807"
       style="fill:#a19562;fill-opacity:1;fill-rule:evenodd;stroke:none" />
  </g>
  <g
     transform="matrix(1.25,0,0,-1.25,162.32662,167.25562)"
     id="g5809">
    <path
       d="M 0,0 C 1.082,0 2.163,0.029 3.244,0.029 C 4.694,0 6.145,-0.114 7.595,-0.256 C 7.482,0.57 7.509,0.796 7.737,1.593 C 5.547,1.479 3.386,1.337 1.167,1.337 C -0.226,1.337 -1.649,1.422 -3.042,1.507 C -2.758,-0.455 -2.872,-0.882 -2.844,-2.048 C -2.815,-3.185 -2.786,-4.295 -2.786,-5.405 C -2.786,-7.509 -2.815,-9.585 -2.844,-11.66 C -2.844,-12.486 -2.844,-13.311 -2.872,-14.135 C -2.872,-14.789 -2.844,-15.471 -2.872,-16.127 C -2.901,-16.924 -2.986,-17.663 -3.042,-18.429 C -1.592,-18.374 -0.17,-18.344 1.281,-18.344 C 3.528,-18.344 5.747,-18.429 7.965,-18.545 C 7.88,-18.004 7.851,-17.918 7.851,-17.606 C 7.851,-17.236 7.908,-16.924 7.937,-16.781 C 7.083,-16.809 6.257,-16.864 5.405,-16.894 C 3.584,-16.951 1.792,-16.951 -0.028,-16.951 L -0.028,-8.562 C 0.541,-8.504 1.139,-8.475 1.736,-8.475 C 2.276,-8.475 2.817,-8.504 3.357,-8.504 C 4.125,-8.533 4.865,-8.533 5.604,-8.589 C 6.06,-8.617 6.514,-8.675 6.998,-8.759 C 6.913,-7.935 6.913,-7.707 7.054,-6.913 C 6.401,-6.968 5.718,-7.081 5.063,-7.11 C 4.609,-7.138 4.182,-7.138 3.727,-7.138 C 2.504,-7.138 1.251,-7.138 0.03,-7.168 L 0,0 z"
       id="path5811"
       style="fill:#a19562;fill-opacity:1;fill-rule:nonzero;stroke:none" />
  </g>
  <g
     transform="matrix(1.25,0,0,-1.25,205.32912,169.85062)"
     id="g5813">
    <path
       d="M 0,0 C 0.115,1.308 0.2,1.564 0.597,2.787 C -0.711,3.299 -3.043,4.267 -6.542,4.267 C -10.581,4.267 -14.733,2.787 -16.639,-1.053 C -17.663,-3.128 -17.718,-5.262 -17.718,-6.085 C -17.718,-9.614 -16.497,-11.832 -15.643,-12.884 C -14.364,-14.505 -11.718,-16.581 -6.968,-16.581 C -4.237,-16.581 -2.217,-15.871 -1.28,-15.444 C -0.626,-15.131 0.2,-14.59 0.341,-14.505 C 0.399,-13.538 0.399,-13.425 0.655,-12.486 L 0.256,-12.258 C -1.222,-13.538 -2.217,-14.42 -4.096,-14.903 C -5.091,-15.16 -5.973,-15.188 -6.343,-15.188 C -10.097,-15.188 -12.003,-13.14 -12.827,-11.889 C -14.364,-9.584 -14.421,-6.712 -14.421,-5.83 C -14.421,-1.992 -12.913,0.113 -11.747,1.194 C -9.813,2.957 -7.821,3.043 -6.825,3.043 C -4.124,3.043 -2.588,2.133 -1.707,1.394 C -1.194,0.995 -0.739,0.484 -0.34,0 L 0,0 z"
       id="path5815"
       style="fill:#a19562;fill-opacity:1;fill-rule:nonzero;stroke:none" />
  </g>
  <g
     transform="matrix(1.25,0,0,-1.25,227.78038,186.59424)"
     id="g5817">
    <path
       d="M 0,0 C 0,-1.225 -0.029,-1.765 -0.227,-2.931 C 0.341,-2.846 0.797,-2.76 1.394,-2.76 C 1.906,-2.76 2.219,-2.788 3.129,-2.931 C 3.072,-2.078 2.987,-1.225 2.958,-0.371 C 2.844,1.308 2.816,2.985 2.816,4.692 C 2.816,6.598 2.844,8.475 2.901,10.381 C 2.929,11.745 2.901,13.139 2.958,14.503 C 2.987,15.385 3.072,16.267 3.186,17.15 C 2.276,17.036 1.906,17.006 1.451,17.006 C 0.882,17.006 0.37,17.064 -0.171,17.092 C -0.113,16.153 -0.057,15.215 -0.029,14.276 C 0.057,12.4 0.029,10.523 0.029,8.646 C -1.82,8.589 -3.669,8.558 -5.518,8.558 C -7.452,8.558 -9.385,8.617 -11.32,8.674 C -11.349,9.982 -11.376,11.261 -11.349,12.569 C -11.32,14.049 -11.206,15.528 -11.064,17.006 C -11.604,16.978 -12.117,16.922 -12.628,16.922 C -13.282,16.922 -13.737,17.006 -14.42,17.092 C -14.334,16.182 -14.22,15.244 -14.192,14.334 C -14.135,13.423 -14.135,12.483 -14.135,11.576 L -14.135,6.256 C -14.135,4.465 -14.135,2.672 -14.192,0.909 C -14.249,-0.371 -14.334,-1.65 -14.448,-2.931 C -13.566,-2.788 -13.31,-2.76 -12.828,-2.76 C -12.23,-2.76 -11.746,-2.846 -11.149,-2.931 C -11.235,-1.566 -11.32,-0.201 -11.349,1.165 C -11.405,3.099 -11.349,5.033 -11.32,6.967 C -9.329,7.024 -7.309,7.052 -5.318,7.024 C -3.527,7.024 -1.763,6.938 0,6.882 L 0,0 z"
       id="path5819"
       style="fill:#a19562;fill-opacity:1;fill-rule:nonzero;stroke:none" />
  </g>
  <g
     transform="matrix(1.25,0,0,-1.25,240.90037,178.09937)"
     id="g5821">
    <path
       d="M 0,0 C -0.085,3.158 0.57,5.973 3.186,7.964 C 5.006,9.33 6.683,9.443 7.537,9.443 C 8.306,9.443 9.215,9.301 9.386,9.273 C 9.841,9.187 11.121,8.932 12.23,8.135 C 12.999,7.594 13.567,6.855 13.767,6.599 C 15.501,4.238 15.53,1.594 15.53,0.626 C 15.53,-3.128 14.534,-5.119 13.453,-6.398 C 11.462,-8.76 8.874,-9.016 7.794,-9.016 C 6.627,-9.016 3.699,-8.732 1.707,-5.972 C 0.882,-4.834 0.057,-3.128 0,0 M -3.271,0.541 C -3.329,-3.186 -1.905,-5.546 -1.024,-6.598 C -0.37,-7.395 0.314,-7.935 0.626,-8.134 C 2.731,-9.699 5.206,-10.182 7.737,-10.182 C 9.272,-10.182 12.658,-10.097 15.672,-7.281 C 17.891,-5.176 18.801,-2.645 18.801,0.455 C 18.801,4.607 17.151,6.684 15.843,7.878 C 12.914,10.524 8.903,10.609 7.68,10.609 C 3.158,10.609 0.626,8.732 -0.71,7.338 C -1.734,6.257 -3.214,4.209 -3.271,0.541"
       id="path5823"
       style="fill:#a19562;fill-opacity:1;fill-rule:evenodd;stroke:none" />
  </g>
  <g
     transform="matrix(1.25,0,0,-1.25,290.76162,169.85062)"
     id="g5825">
    <path
       d="M 0,0 C 0.113,1.308 0.199,1.564 0.598,2.787 C -0.711,3.299 -3.044,4.267 -6.542,4.267 C -10.581,4.267 -14.734,2.787 -16.64,-1.053 C -17.663,-3.128 -17.719,-5.262 -17.719,-6.085 C -17.719,-9.614 -16.497,-11.832 -15.645,-12.884 C -14.363,-14.505 -11.719,-16.581 -6.969,-16.581 C -4.238,-16.581 -2.219,-15.871 -1.28,-15.444 C -0.626,-15.131 0.199,-14.59 0.342,-14.505 C 0.397,-13.538 0.397,-13.425 0.654,-12.486 L 0.256,-12.258 C -1.224,-13.538 -2.219,-14.42 -4.095,-14.903 C -5.092,-15.16 -5.974,-15.188 -6.342,-15.188 C -10.097,-15.188 -12.003,-13.14 -12.828,-11.889 C -14.363,-9.584 -14.421,-6.712 -14.421,-5.83 C -14.421,-1.992 -12.913,0.113 -11.747,1.194 C -9.813,2.957 -7.822,3.043 -6.827,3.043 C -4.125,3.043 -2.589,2.133 -1.707,1.394 C -1.195,0.995 -0.74,0.484 -0.342,0 L 0,0 z"
       id="path5827"
       style="fill:#a19562;fill-opacity:1;fill-rule:nonzero;stroke:none" />
  </g>
  <g
     transform="matrix(1.25,0,0,-1.25,298.35037,178.09937)"
     id="g5829">
    <path
       d="M 0,0 C -0.085,3.158 0.57,5.973 3.185,7.964 C 5.008,9.33 6.684,9.443 7.538,9.443 C 8.306,9.443 9.216,9.301 9.387,9.273 C 9.843,9.187 11.122,8.932 12.231,8.135 C 12.998,7.594 13.566,6.855 13.767,6.599 C 15.502,4.238 15.53,1.594 15.53,0.626 C 15.53,-3.128 14.535,-5.119 13.454,-6.398 C 11.464,-8.76 8.875,-9.016 7.794,-9.016 C 6.629,-9.016 3.699,-8.732 1.708,-5.972 C 0.883,-4.834 0.057,-3.128 0,0 M -3.271,0.541 C -3.326,-3.186 -1.905,-5.546 -1.024,-6.598 C -0.369,-7.395 0.313,-7.935 0.627,-8.134 C 2.731,-9.699 5.208,-10.182 7.737,-10.182 C 9.273,-10.182 12.657,-10.097 15.673,-7.281 C 17.89,-5.176 18.801,-2.645 18.801,0.455 C 18.801,4.607 17.151,6.684 15.843,7.878 C 12.914,10.524 8.904,10.609 7.681,10.609 C 3.157,10.609 0.627,8.732 -0.711,7.338 C -1.735,6.257 -3.214,4.209 -3.271,0.541"
       id="path5831"
       style="fill:#a19562;fill-opacity:1;fill-rule:evenodd;stroke:none" />
  </g>
  <g
     transform="matrix(1.25,0,0,-1.25,330.78913,174.18799)"
     id="g5833">
    <path
       d="M 0,0 C 0.028,1.167 0,2.332 0.028,3.498 C 0.028,4.749 0.115,5.973 0.258,7.225 C -0.568,7.111 -1.051,7.053 -1.421,7.053 C -2.049,7.053 -2.957,7.167 -3.015,7.167 C -2.931,3.869 -2.813,0.541 -2.813,-2.786 C -2.813,-4.21 -2.846,-5.631 -2.873,-7.054 C -2.873,-8.192 -2.873,-9.329 -2.901,-10.465 C -2.931,-11.291 -3.015,-12.117 -3.101,-12.942 C -1.279,-12.828 0.513,-12.713 2.333,-12.713 C 4.296,-12.713 6.23,-12.798 8.193,-12.883 C 8.109,-11.804 8.164,-11.575 8.222,-10.95 C 5.546,-11.235 4.692,-11.348 0.087,-11.291 C 0.028,-8.931 0,-6.599 0,-4.21 L 0,0 z"
       id="path5835"
       style="fill:#a19562;fill-opacity:1;fill-rule:nonzero;stroke:none" />
  </g>
  <g
     transform="matrix(1.25,0,0,-1.25,349.00913,178.95312)"
     id="g5837">
    <path
       d="M 0,0 C 0.54,1.309 1.052,2.589 1.62,3.898 C 2.105,5.035 2.672,6.144 3.213,7.253 L 6.454,0 L 0,0 z M 3.328,11.122 C 2.871,9.956 2.389,8.818 1.875,7.681 C 1.195,6.115 0.483,4.58 -0.199,3.016 C -1.139,0.883 -2.048,-1.251 -2.99,-3.383 C -3.869,-5.261 -4.777,-7.138 -5.689,-8.986 C -5.122,-8.93 -4.751,-8.901 -4.494,-8.901 C -4.125,-8.901 -3.899,-8.93 -3.242,-9.044 C -2.505,-6.455 -2.277,-5.659 -0.599,-1.478 C 0.794,-1.421 2.161,-1.364 3.554,-1.364 C 4.721,-1.364 5.888,-1.393 7.053,-1.421 C 8.959,-5.659 9.214,-6.512 10.041,-9.101 C 10.979,-8.93 11.403,-8.873 11.858,-8.873 C 12.402,-8.873 12.771,-8.93 13.734,-9.071 C 13.255,-8.162 12.771,-7.252 12.313,-6.285 C 11.773,-5.119 11.291,-3.896 10.779,-2.701 C 10.124,-1.193 9.442,0.286 8.76,1.821 C 8.162,3.158 7.594,4.551 6.968,5.888 C 6.512,6.854 6.029,7.794 5.603,8.732 C 5.261,9.5 4.947,10.297 4.663,11.092 L 3.328,11.122 z"
       id="path5839"
       style="fill:#a19562;fill-opacity:1;fill-rule:evenodd;stroke:none" />
  </g>
  <g
     transform="matrix(1.25,0,0,-1.25,382.31163,165.15688)"
     id="g5841">
    <path
       d="M 0,0 C -0.824,-0.086 -1.648,-0.172 -2.472,-0.228 C -3.526,-0.285 -4.577,-0.314 -5.63,-0.314 C -6.992,-0.342 -8.361,-0.342 -9.726,-0.342 C -10.778,-0.342 -11.828,-0.342 -12.883,-0.285 C -13.877,-0.228 -14.873,-0.144 -15.869,-0.058 C -15.755,-0.626 -15.726,-0.826 -15.726,-1.139 C -15.726,-1.396 -15.784,-1.793 -15.81,-2.049 C -14.873,-1.963 -13.933,-1.878 -13.024,-1.821 C -11.773,-1.765 -10.55,-1.765 -9.301,-1.765 C -9.271,-4.552 -9.238,-7.311 -9.238,-10.098 C -9.271,-13.425 -9.356,-16.752 -9.469,-20.053 C -8.645,-19.967 -8.477,-19.938 -7.99,-19.938 C -7.479,-19.938 -7.166,-19.967 -6.2,-20.108 C -6.259,-18.972 -6.342,-17.862 -6.37,-16.725 C -6.454,-14.99 -6.429,-13.226 -6.401,-11.491 C -6.401,-9.755 -6.429,-7.993 -6.429,-6.258 C -6.429,-4.75 -6.37,-3.271 -6.342,-1.765 C -5.347,-1.765 -4.351,-1.793 -3.383,-1.793 C -1.564,-1.821 -1.166,-1.85 -0.085,-2.077 C -0.198,-1.537 -0.224,-1.396 -0.224,-1.109 C -0.224,-0.655 -0.055,-0.114 0,0"
       id="path5843"
       style="fill:#a19562;fill-opacity:1;fill-rule:nonzero;stroke:none" />
  </g>
  <g
     transform="matrix(1.25,0,0,-1.25,389.028,165.26437)"
     id="g5845">
    <path
       d="M 0,0 C -0.6,-0.058 -1.026,-0.114 -1.652,-0.114 C -2.164,-0.114 -2.446,-0.086 -3.329,0.028 C -3.273,-0.598 -3.216,-1.251 -3.188,-1.905 C -3.074,-3.526 -3.046,-5.205 -3.046,-6.854 C -3.046,-7.935 -3.074,-8.988 -3.074,-10.04 C -3.074,-11.775 -3.074,-13.509 -3.101,-15.245 C -3.101,-16.866 -3.188,-18.457 -3.301,-20.052 C -2.391,-19.937 -2.107,-19.91 -1.594,-19.91 C -1.026,-19.91 -0.458,-19.967 0.111,-20.022 C 0.028,-19.199 -0.058,-18.374 -0.116,-17.52 C -0.199,-16.184 -0.199,-14.847 -0.199,-13.481 C -0.231,-11.547 -0.259,-9.614 -0.259,-7.68 C -0.259,-6.627 -0.259,-5.575 -0.231,-4.495 C -0.171,-3.015 -0.087,-1.507 0,0"
       id="path5847"
       style="fill:#a19562;fill-opacity:1;fill-rule:nonzero;stroke:none" />
  </g>
  <g
     transform="matrix(1.25,0,0,-1.25,399.75662,167.25562)"
     id="g5849">
    <path
       d="M 0,0 C 1.08,0 2.158,0.029 3.24,0.029 C 4.691,0 6.139,-0.114 7.592,-0.256 C 7.477,0.57 7.506,0.796 7.734,1.593 C 5.545,1.479 3.385,1.337 1.166,1.337 C -0.23,1.337 -1.651,1.422 -3.047,1.507 C -2.76,-0.455 -2.876,-0.882 -2.845,-2.048 C -2.816,-3.185 -2.79,-4.295 -2.79,-5.405 C -2.79,-7.509 -2.816,-9.585 -2.845,-11.66 C -2.845,-12.486 -2.845,-13.311 -2.876,-14.135 C -2.876,-14.789 -2.845,-15.471 -2.876,-16.127 C -2.903,-16.924 -2.986,-17.663 -3.047,-18.429 C -1.595,-18.374 -0.174,-18.344 1.274,-18.344 C 3.524,-18.344 5.742,-18.429 7.963,-18.545 C 7.876,-18.004 7.847,-17.918 7.847,-17.606 C 7.847,-17.236 7.907,-16.924 7.933,-16.781 C 7.082,-16.809 6.253,-16.864 5.4,-16.894 C 3.581,-16.951 1.792,-16.951 -0.028,-16.951 L -0.028,-8.562 C 0.539,-8.504 1.136,-8.475 1.732,-8.475 C 2.273,-8.475 2.811,-8.504 3.352,-8.504 C 4.122,-8.533 4.862,-8.533 5.598,-8.589 C 6.056,-8.617 6.511,-8.675 6.995,-8.759 C 6.91,-7.935 6.91,-7.707 7.052,-6.913 C 6.397,-6.968 5.716,-7.081 5.058,-7.11 C 4.605,-7.138 4.181,-7.138 3.723,-7.138 C 2.5,-7.138 1.25,-7.138 0.027,-7.168 L 0,0 z"
       id="path5851"
       style="fill:#a19562;fill-opacity:1;fill-rule:nonzero;stroke:none" />
  </g>
  <g
     transform="matrix(1.25,0,0,-1.25,418.07662,166.93438)"
     id="g5853">
    <path
       d="M 0,0 C 0.712,0.056 1.397,0.112 2.105,0.112 C 2.788,0.112 3.557,0.056 4.182,-0.115 C 5.121,-0.371 6.913,-1.139 6.913,-3.727 C 6.913,-6.372 4.979,-7.31 4.126,-7.623 C 2.562,-8.163 0.199,-8.022 -0.085,-8.022 C -0.113,-6.798 -0.113,-5.575 -0.113,-4.381 C -0.113,-2.902 -0.056,-1.452 0,0 M -3.071,1.392 C -3.016,0.539 -2.957,-0.343 -2.901,-1.225 C -2.815,-2.817 -2.815,-4.41 -2.815,-6.003 L -2.815,-8.477 C -2.844,-10.24 -2.844,-11.975 -2.901,-13.71 C -2.928,-15.359 -3.071,-17.009 -3.242,-18.686 C -2.7,-18.631 -2.16,-18.574 -1.618,-18.574 C -0.967,-18.574 -0.51,-18.631 0.114,-18.716 C 0.058,-18.005 0,-17.294 -0.026,-16.555 C -0.056,-15.728 -0.056,-14.904 -0.056,-14.051 C -0.056,-12.373 -0.056,-10.665 -0.085,-8.988 L 0.569,-8.874 C 1.992,-10.638 3.413,-12.402 4.78,-14.193 C 5.888,-15.672 6.941,-17.181 7.993,-18.716 C 8.648,-18.631 9.275,-18.574 9.928,-18.574 C 10.609,-18.574 11.265,-18.659 11.945,-18.716 L 11.976,-18.403 C 10.64,-16.895 9.303,-15.359 8.051,-13.794 C 6.686,-12.145 5.405,-10.439 4.097,-8.732 C 5.716,-8.391 7.199,-8.106 8.392,-6.941 C 9.757,-5.604 9.956,-4.068 9.984,-3.386 C 9.984,-2.447 9.645,-1.48 9.104,-0.712 C 7.909,0.995 5.945,1.137 5.264,1.194 C 4.922,1.222 4.551,1.25 4.209,1.25 L -1.279,1.25 L -3.071,1.392 z"
       id="path5855"
       style="fill:#a19562;fill-opacity:1;fill-rule:evenodd;stroke:none" />
  </g>
  <g
     transform="matrix(1.25,0,0,-1.25,443.48038,185.45799)"
     id="g5857">
    <path
       d="M 0,0 C -0.112,-1.223 -0.169,-1.394 -0.594,-2.559 C 0.629,-3.356 1.794,-4.21 4.782,-4.21 C 5.435,-4.21 7.226,-4.21 8.931,-3.215 C 9.84,-2.674 12.06,-0.996 12.087,2.162 C 12.087,3.556 11.605,5.034 10.638,5.945 C 9.357,7.196 7.026,7.765 5.464,8.419 C 4.041,8.987 3.359,9.499 2.903,10.096 C 2.705,10.352 2.247,11.034 2.247,11.973 C 2.247,13.14 3.103,15.244 5.948,15.244 C 7.852,15.244 8.819,14.42 9.274,13.851 C 9.586,13.481 9.986,12.826 10.013,12.77 L 10.381,12.742 C 10.697,14.078 10.866,14.448 11.178,15.132 C 10.129,15.699 9.328,16.097 8.192,16.296 C 7.513,16.411 6.741,16.411 6.543,16.411 C 3.784,16.411 2.391,15.643 1.483,14.79 C -0.084,13.339 -0.282,11.604 -0.282,10.78 C -0.282,8.987 0.6,7.509 2.078,6.597 C 2.732,6.2 3.784,5.717 5.435,5.092 C 6.458,4.693 7.483,4.409 8.337,3.64 C 9.418,2.701 9.53,1.564 9.53,0.996 C 9.53,-0.341 8.787,-2.958 5.35,-2.987 C 4.468,-2.987 3.813,-2.816 3.501,-2.702 C 2.108,-2.275 1.453,-1.48 1.081,-1.024 C 0.826,-0.711 0.6,-0.371 0.342,0 L 0,0 z"
       id="path5859"
       style="fill:#a19562;fill-opacity:1;fill-rule:nonzero;stroke:none" />
  </g>
  <g
     transform="matrix(1.25,0,0,-1.25,482.16287,167.14812)"
     id="g5861">
    <path
       d="M 0,0 C 0.086,-2.162 0.197,-4.324 0.197,-6.485 C 0.197,-7.965 0.139,-9.414 0.114,-10.865 C 0,-12.259 -0.115,-12.913 -0.343,-13.539 C -0.827,-14.904 -2.363,-17.379 -6.088,-17.379 C -9.643,-17.379 -11.067,-15.188 -11.522,-13.794 C -11.974,-12.515 -12.034,-10.78 -12.062,-10.439 C -12.091,-8.22 -12.146,-6 -12.091,-3.812 C -12.062,-2.049 -11.946,-0.257 -11.805,1.507 C -12.345,1.479 -12.886,1.449 -13.399,1.449 C -13.997,1.449 -14.564,1.507 -15.133,1.535 C -15.076,0.283 -14.993,-0.968 -14.961,-2.247 C -14.905,-3.414 -14.934,-4.552 -14.934,-5.718 C -14.934,-7.595 -14.934,-9.472 -14.961,-11.348 C -14.85,-13.254 -14.735,-13.994 -14.338,-14.904 C -14.194,-15.217 -13.911,-15.871 -13.314,-16.525 C -11.123,-18.914 -7.427,-18.943 -6.686,-18.943 C -3.414,-18.943 -1.708,-18.004 -0.57,-17.01 C 0.197,-16.326 1.279,-15.046 1.705,-12.572 C 1.79,-12.031 1.819,-11.49 1.875,-10.95 C 1.904,-10.069 1.904,-9.158 1.933,-8.278 C 1.961,-6.457 1.961,-4.609 2.046,-2.788 C 2.103,-1.338 2.246,0.085 2.386,1.507 C 1.961,1.479 1.534,1.449 1.108,1.449 C 0.68,1.449 0.255,1.479 -0.172,1.535 L 0,0 z"
       id="path5863"
       style="fill:#a19562;fill-opacity:1;fill-rule:nonzero;stroke:none" />
  </g>
  <g
     transform="matrix(1.25,0,0,-1.25,494.68662,165.26437)"
     id="g5865">
    <path
       d="M 0,0 C -0.596,-0.058 -1.024,-0.114 -1.648,-0.114 C -2.159,-0.114 -2.446,-0.086 -3.328,0.028 C -3.268,-0.598 -3.214,-1.251 -3.184,-1.905 C -3.07,-3.526 -3.042,-5.205 -3.042,-6.854 C -3.042,-7.935 -3.07,-8.988 -3.07,-10.04 C -3.07,-11.775 -3.07,-13.509 -3.099,-15.245 C -3.099,-16.866 -3.184,-18.457 -3.299,-20.052 C -2.388,-19.937 -2.105,-19.91 -1.594,-19.91 C -1.024,-19.91 -0.453,-19.967 0.116,-20.022 C 0.029,-19.199 -0.055,-18.374 -0.111,-17.52 C -0.199,-16.184 -0.199,-14.847 -0.199,-13.481 C -0.225,-11.547 -0.255,-9.614 -0.255,-7.68 C -0.255,-6.627 -0.255,-5.575 -0.225,-4.495 C -0.171,-3.015 -0.084,-1.507 0,0"
       id="path5867"
       style="fill:#a19562;fill-opacity:1;fill-rule:nonzero;stroke:none" />
  </g>
  <g
     transform="matrix(1.25,0,0,-1.25,500.01288,185.45799)"
     id="g5869">
    <path
       d="M 0,0 C -0.112,-1.223 -0.169,-1.394 -0.596,-2.559 C 0.625,-3.356 1.794,-4.21 4.779,-4.21 C 5.434,-4.21 7.226,-4.21 8.932,-3.215 C 9.842,-2.674 12.059,-0.996 12.09,2.162 C 12.09,3.556 11.605,5.034 10.637,5.945 C 9.358,7.196 7.025,7.765 5.461,8.419 C 4.041,8.987 3.358,9.499 2.901,10.096 C 2.701,10.352 2.247,11.034 2.247,11.973 C 2.247,13.14 3.101,15.244 5.945,15.244 C 7.851,15.244 8.818,14.42 9.272,13.851 C 9.588,13.481 9.983,12.826 10.012,12.77 L 10.383,12.742 C 10.696,14.078 10.866,14.448 11.179,15.132 C 10.125,15.699 9.33,16.097 8.193,16.296 C 7.511,16.411 6.742,16.411 6.543,16.411 C 3.783,16.411 2.391,15.643 1.481,14.79 C -0.084,13.339 -0.283,11.604 -0.283,10.78 C -0.283,8.987 0.6,7.509 2.077,6.597 C 2.73,6.2 3.783,5.717 5.434,5.092 C 6.458,4.693 7.482,4.409 8.336,3.64 C 9.418,2.701 9.529,1.564 9.529,0.996 C 9.529,-0.341 8.79,-2.958 5.348,-2.987 C 4.467,-2.987 3.812,-2.816 3.5,-2.702 C 2.105,-2.275 1.453,-1.48 1.081,-1.024 C 0.825,-0.711 0.6,-0.371 0.342,0 L 0,0 z"
       id="path5871"
       style="fill:#a19562;fill-opacity:1;fill-rule:nonzero;stroke:none" />
  </g>
  <g
     transform="matrix(1.25,0,0,-1.25,518.35425,185.45799)"
     id="g5873">
    <path
       d="M 0,0 C -0.113,-1.223 -0.171,-1.394 -0.596,-2.559 C 0.627,-3.356 1.793,-4.21 4.779,-4.21 C 5.433,-4.21 7.226,-4.21 8.932,-3.215 C 9.842,-2.674 12.062,-0.996 12.088,2.162 C 12.088,3.556 11.605,5.034 10.639,5.945 C 9.359,7.196 7.027,7.765 5.463,8.419 C 4.04,8.987 3.356,9.499 2.904,10.096 C 2.703,10.352 2.248,11.034 2.248,11.973 C 2.248,13.14 3.102,15.244 5.946,15.244 C 7.851,15.244 8.818,14.42 9.273,13.851 C 9.587,13.481 9.986,12.826 10.011,12.77 L 10.382,12.742 C 10.696,14.078 10.867,14.448 11.18,15.132 C 10.128,15.699 9.33,16.097 8.192,16.296 C 7.51,16.411 6.742,16.411 6.543,16.411 C 3.786,16.411 2.39,15.643 1.48,14.79 C -0.084,13.339 -0.283,11.604 -0.283,10.78 C -0.283,8.987 0.598,7.509 2.075,6.597 C 2.732,6.2 3.786,5.717 5.433,5.092 C 6.459,4.693 7.48,4.409 8.334,3.64 C 9.415,2.701 9.53,1.564 9.53,0.996 C 9.53,-0.341 8.791,-2.958 5.347,-2.987 C 4.467,-2.987 3.811,-2.816 3.499,-2.702 C 2.106,-2.275 1.452,-1.48 1.081,-1.024 C 0.826,-0.711 0.598,-0.371 0.344,0 L 0,0 z"
       id="path5875"
       style="fill:#a19562;fill-opacity:1;fill-rule:nonzero;stroke:none" />
  </g>
  <g
     transform="matrix(1.25,0,0,-1.25,542.10162,167.25562)"
     id="g5877">
    <path
       d="M 0,0 C 1.081,0 2.161,0.029 3.242,0.029 C 4.693,0 6.142,-0.114 7.593,-0.256 C 7.479,0.57 7.508,0.796 7.736,1.593 C 5.547,1.479 3.384,1.337 1.166,1.337 C -0.229,1.337 -1.652,1.422 -3.045,1.507 C -2.76,-0.455 -2.875,-0.882 -2.846,-2.048 C -2.818,-3.185 -2.787,-4.295 -2.787,-5.405 C -2.787,-7.509 -2.818,-9.585 -2.846,-11.66 C -2.846,-12.486 -2.846,-13.311 -2.875,-14.135 C -2.875,-14.789 -2.846,-15.471 -2.875,-16.127 C -2.901,-16.924 -2.988,-17.663 -3.045,-18.429 C -1.593,-18.374 -0.171,-18.344 1.278,-18.344 C 3.525,-18.344 5.743,-18.429 7.966,-18.545 C 7.878,-18.004 7.849,-17.918 7.849,-17.606 C 7.849,-17.236 7.905,-16.924 7.936,-16.781 C 7.082,-16.809 6.258,-16.864 5.402,-16.894 C 3.583,-16.951 1.791,-16.951 -0.029,-16.951 L -0.029,-8.562 C 0.54,-8.504 1.137,-8.475 1.736,-8.475 C 2.276,-8.475 2.814,-8.504 3.355,-8.504 C 4.125,-8.533 4.864,-8.533 5.602,-8.589 C 6.059,-8.617 6.513,-8.675 6.996,-8.759 C 6.912,-7.935 6.912,-7.707 7.053,-6.913 C 6.4,-6.968 5.718,-7.081 5.061,-7.11 C 4.607,-7.138 4.182,-7.138 3.724,-7.138 C 2.501,-7.138 1.252,-7.138 0.029,-7.168 L 0,0 z"
       id="path5879"
       style="fill:#a19562;fill-opacity:1;fill-rule:nonzero;stroke:none" />
  </g>
  <path
     d="M 14.0475,136.78949 L 585.9525,136.78949 L 585.9525,143.087 L 14.0475,143.087 L 14.0475,136.78949 z"
     id="path5881"
     style="fill:#a19562;fill-opacity:1;fill-rule:nonzero;stroke:none" />
  <g
     transform="matrix(1.25,0,0,-1.25,487.988,51.051875)"
     id="g5883">
    <path
       d="M 0,0 C -0.367,-0.089 -0.747,-0.224 -0.935,-0.578 C -0.682,-0.807 -0.543,-1.123 -0.578,-1.46 C -0.629,-1.963 -0.996,-2.326 -1.184,-2.767 C -2.798,-6.671 -2.704,-10.451 -0.697,-14.165 C -0.443,-14.31 -0.208,-14.545 -0.137,-14.834 C 0.521,-15.259 1.012,-16.121 0.442,-16.841 C 0.353,-16.485 0.145,-16.169 -0.089,-15.898 C -0.996,-16.646 -0.917,-16.607 -2.026,-16.292 C -2.226,-16.236 -2.407,-16.479 -2.515,-16.611 C -3.927,-18.445 -6.209,-23.886 -5.409,-26.194 C -5.239,-26.696 -4.97,-26.917 -4.97,-27.52 C -4.563,-28.117 -4.551,-29.161 -5.128,-29.662 C -5.194,-29.222 -5.261,-28.77 -5.497,-28.387 C -7.296,-29.387 -7.212,-27.831 -7.805,-27.318 C -9.634,-27.088 -11.766,-27.616 -13.213,-28.765 C -14.303,-29.632 -14.659,-30.388 -15.287,-30.956 C -15.619,-31.258 -16,-30.608 -16.231,-30.44 C -16.988,-29.871 -19.745,-28.625 -20.619,-29.147 C -21.045,-30.026 -18.617,-31.549 -18.196,-32.099 C -17.974,-32.384 -18.464,-32.785 -18.64,-32.98 C -18.979,-33.352 -19.65,-33.741 -20.105,-33.967 C -19.923,-35.136 -18.936,-35.816 -18.594,-36.841 C -18.805,-37.503 -19.467,-37.853 -19.957,-38.29 C -19.848,-39.116 -19.275,-39.766 -18.712,-40.342 C -18.629,-40.907 -19.214,-41.264 -19.26,-41.621 C -19.32,-42.088 -18.226,-43.096 -17.902,-43.397 C -17.871,-43.6 -17.986,-44.019 -17.871,-44.174 C -17.314,-44.926 -15.923,-44.48 -15.521,-45.333 C -14.616,-45.589 -13.53,-45.575 -12.786,-44.939 C -13.279,-44.622 -13.812,-44.357 -14.146,-43.854 C -15.09,-43.505 -15.708,-43.009 -16.094,-42.075 C -16.347,-41.474 -16.862,-41.222 -16.967,-40.495 C -17.049,-39.937 -16.965,-39.517 -16.927,-38.973 C -16.873,-38.31 -17.375,-37.658 -17.029,-36.995 C -16.789,-36.544 -16.256,-36.302 -16.022,-35.899 C -15.84,-35.576 -15.939,-35.178 -15.655,-34.867 C -15.196,-34.369 -14.378,-34.553 -13.922,-34.091 C -13.633,-33.794 -13.389,-33.404 -12.905,-33.48 C -12.277,-33.582 -11.59,-34.183 -10.926,-33.8 C -10.581,-33.605 -10.3,-33.301 -9.875,-33.557 C -9.254,-33.931 -9.179,-34.82 -8.457,-35.11 C -7.906,-35.33 -7.029,-34.807 -6.875,-35.671 C -6.75,-36.373 -7.145,-37.691 -6.28,-38.06 C -5.975,-38.192 -5.47,-38.082 -5.409,-38.561 C -5.329,-39.232 -6.119,-40.484 -5.896,-41.071 C -5.732,-41.515 -4.987,-41.868 -5.266,-42.428 C -5.575,-43.059 -6.181,-43.404 -6.402,-44.174 C -5.02,-45.175 -3.782,-45.893 -3.696,-47.827 C -3.525,-47.752 -3.239,-46.972 -2.381,-47.064 C -2.065,-47.097 -1.163,-47.68 -1.26,-48.038 C -1.302,-48.206 -1.475,-48.118 -1.583,-48.117 C -2.711,-48.095 -3.491,-52.942 -8.118,-51.873 C -8.265,-51.837 -8.441,-51.772 -8.5,-51.615 C -7.915,-51.144 -6.862,-50.737 -7.009,-49.817 C -7.088,-49.3 -7.728,-49 -7.572,-48.422 C -7.359,-47.665 -6.03,-47.784 -5.912,-48.874 C -5.321,-47.735 -6.634,-47.079 -7.513,-46.82 C -8.583,-47.22 -8.748,-48.647 -8.807,-48.724 C -9.354,-49.389 -10.404,-49.653 -11.161,-49.956 C -11.583,-50.125 -11.376,-50.694 -11.812,-50.836 C -12.764,-51.154 -14.64,-51.151 -15.563,-51.173 C -15.742,-51.347 -15.834,-51.597 -16.051,-51.734 C -17.256,-51.754 -18.883,-51.063 -19.969,-50.612 C -20.238,-50.727 -20.419,-50.978 -20.652,-51.158 C -21.454,-51.116 -23.244,-49.627 -23.886,-49.089 C -24.129,-49.092 -24.471,-49.388 -24.698,-49.241 C -25.168,-48.939 -26.285,-46.908 -26.607,-46.335 C -26.833,-46.339 -27.047,-46.451 -27.271,-46.396 C -27.588,-45.902 -27.754,-44.108 -27.832,-43.628 C -27.913,-43.114 -28.327,-43.143 -28.764,-43.065 C -29.663,-38.258 -30.781,-37.467 -31.216,-43.156 L -31.516,-43.172 C -32.919,-41.995 -33.132,-43.483 -33.434,-44.66 C -33.696,-44.905 -33.876,-44.437 -34.098,-44.343 C -34.936,-43.977 -34.961,-45.327 -35.016,-45.803 C -36.017,-45.764 -37.223,-48.769 -36.26,-49.304 C -35.932,-49.48 -35.5,-49.549 -35.237,-49.817 C -34.685,-49.849 -33.651,-49.929 -33.713,-50.73 C -33.728,-50.888 -33.728,-51.084 -33.863,-51.188 C -34.996,-49.565 -35.217,-52.323 -37.008,-51.734 C -38.919,-51.11 -36.801,-48.801 -39.877,-50.441 C -39.984,-51.611 -41.34,-52.785 -42.211,-51.567 C -42.779,-51.695 -42.829,-52.163 -42.791,-52.647 C -43.724,-51.853 -43.162,-51.337 -42.67,-50.637 C -42.455,-50.334 -42.437,-50.04 -42.111,-49.774 C -43.042,-48.902 -45.575,-51.519 -45.364,-48.069 C -45.707,-47.855 -46.231,-47.747 -46.572,-48.023 C -46.266,-46.988 -45.367,-46.849 -44.55,-47.402 C -44.205,-47.402 -43.865,-47.491 -43.529,-47.537 C -43.973,-46.853 -44.179,-45.534 -43.114,-45.285 C -42.914,-44.868 -43.373,-44.408 -43.724,-44.266 C -43.733,-43.858 -42.66,-44.186 -42.435,-44.465 C -41.957,-45.062 -41.654,-48.099 -39.628,-46.897 C -39.12,-46.597 -38.376,-44.553 -38.361,-43.943 C -38.308,-40.951 -39.225,-37.062 -37.885,-34.365 C -37.711,-34.026 -39.721,-33.487 -39.893,-33.123 C -40.281,-32.286 -41.563,-33.582 -41.927,-33.855 L -42.105,-33.79 C -42.374,-33.211 -42.335,-32.568 -42.56,-32.022 C -42.761,-31.522 -44.864,-31.495 -45.343,-31.594 C -45.351,-30.592 -43.965,-29.67 -46.85,-29.764 C -47.046,-29.073 -48.018,-27.557 -48.914,-28.056 C -49.693,-30.345 -47.325,-30.815 -48.807,-31.818 C -48.792,-29.851 -50.178,-31.784 -51.235,-30.32 C -52.293,-28.85 -50.255,-28.619 -50.897,-27.191 C -51.122,-27.076 -51.376,-26.988 -51.632,-27.004 C -52.879,-27.888 -54.498,-27.524 -54.259,-25.757 C -54.588,-25.404 -54.893,-25.728 -55.217,-25.668 C -55.696,-25.576 -54.804,-24.426 -53.617,-24.855 C -53.313,-24.745 -52.984,-24.779 -52.679,-24.875 C -52.706,-24.578 -52.881,-23.832 -53.106,-23.62 C -54.216,-22.546 -54.132,-21.267 -52.435,-20.918 C -52.113,-20.437 -52.43,-20.05 -52.801,-19.753 C -52.521,-19.597 -52.126,-19.717 -51.884,-19.889 C -51.296,-20.308 -51.5,-20.984 -51.504,-21.562 C -51.504,-21.801 -51.216,-22.469 -51.101,-22.7 C -50.878,-21.734 -49.896,-20.467 -48.979,-21.661 C -48.446,-21.609 -48.419,-21.201 -48.419,-20.763 C -48.299,-20.722 -48.234,-20.817 -48.18,-20.898 C -47.718,-21.613 -47.918,-22.458 -48.678,-22.868 C -48.699,-23.241 -48.89,-23.585 -49.043,-23.916 C -48.801,-24.399 -48.953,-25.073 -48.333,-25.276 C -47.696,-25.484 -45.707,-26.2 -45.149,-26.209 L -44.872,-26.194 C -44.361,-26.112 -43.795,-25.873 -43.276,-25.753 C -41.995,-25.452 -40.68,-25.262 -39.37,-25.159 L -37.716,-25.027 C -37.612,-24.771 -37.799,-24.763 -37.706,-24.502 C -37.912,-24.394 -38.663,-24.196 -38.681,-24.048 C -38.864,-22.634 -37.934,-21.044 -37.944,-20.795 C -37.947,-20.63 -38.207,-20.634 -38.178,-20.461 C -37.97,-19.176 -35.482,-18.282 -34.882,-17.632 C -34.78,-17.514 -34.998,-17.34 -34.837,-17.188 C -34.348,-16.727 -31.283,-16.193 -31.113,-16.047 C -30.992,-15.945 -31.035,-15.714 -30.996,-15.576 C -30.088,-14.924 -28.204,-15.458 -27.477,-14.175 C -26.653,-12.721 -29.522,-12.281 -30.733,-12.643 C -31.081,-12.745 -31.536,-13.076 -31.913,-12.991 C -32.871,-12.768 -35.626,-11.879 -36.108,-13.387 C -36.241,-13.792 -35.773,-13.997 -35.86,-14.375 L -36.079,-14.589 C -37.282,-14.732 -38.986,-13.21 -40.246,-14.862 C -40.711,-14.424 -41.207,-13.911 -41.889,-13.907 C -43.953,-13.88 -48.415,-14.949 -49.944,-13.539 C -50.051,-13.44 -50.219,-13.16 -50.195,-13.008 C -50.078,-12.266 -47.258,-12.951 -47.138,-12.49 C -47.11,-12.393 -47.253,-12.273 -47.325,-12.245 C -49.053,-11.656 -52.088,-10.469 -53.788,-10.313 C -54.553,-10.247 -55.333,-10.306 -56.035,-10.633 C -56.028,-9.993 -54.201,-8.173 -56.874,-7.424 C -56.553,-7.094 -56.061,-7.18 -55.649,-7.241 C -51.96,-7.79 -48.545,-11.904 -44.785,-11.682 C -44.215,-11.651 -40.959,-10.97 -40.902,-10.668 C -40.881,-10.563 -41.007,-10.513 -41.081,-10.493 C -41.729,-10.326 -43.319,-10.756 -43.706,-10.633 C -44.155,-10.489 -44.55,-10.223 -44.989,-10.073 C -45.482,-9.905 -45.908,-10.839 -46.248,-10.208 C -46.763,-9.264 -47.469,-9.104 -48.277,-9.93 L -48.493,-9.889 C -48.742,-9.501 -48.539,-8.911 -49.07,-8.717 C -49.822,-8.442 -50.298,-9.44 -50.592,-8.792 C -50.29,-7.759 -51.529,-7.33 -51.096,-6.103 C -50.32,-3.9 -47.895,-5.978 -47.431,-6.026 C -46.491,-6.114 -45.549,-6.176 -44.61,-6.252 C -42.813,-4.177 -42.446,-5.443 -41.015,-5.197 C -39.247,-4.892 -38.609,-4.98 -36.92,-5.889 C -35.946,-6.415 -35.358,-7.034 -34.175,-6.556 C -33.758,-6.391 -33.303,-5.968 -32.84,-6.206 C -32.612,-6.329 -32.479,-6.628 -32.177,-6.482 C -31.561,-6.179 -31.132,-5.573 -30.551,-5.25 C -29.774,-4.809 -29.714,-6.359 -29.206,-6.511 C -28.492,-6.722 -27.717,-5.197 -27.347,-4.84 C -26.675,-4.19 -25.776,-6.423 -25.378,-6.754 C -24.627,-6.871 -24.378,-5.73 -23.947,-5.63 C -23.073,-5.419 -22.634,-7.832 -22.406,-8.322 C -22.05,-9.104 -21.348,-7.764 -20.858,-8.109 C -20.05,-8.67 -20.689,-10.888 -20.634,-11.665 C -20.592,-12.247 -19.657,-11.862 -19.541,-12.46 C -19.418,-13.108 -20.446,-14.42 -20.723,-14.877 C -20.954,-15.251 -20.263,-15.619 -20.116,-15.837 C -19.91,-16.148 -20.33,-16.546 -20.534,-16.749 C -20.964,-17.18 -21.532,-17.47 -21.981,-17.875 C -22.447,-18.296 -21.665,-18.648 -21.863,-18.938 C -22.091,-19.282 -25.857,-21.628 -24.11,-22.406 C -22.913,-22.16 -19.979,-20.268 -19.26,-19.301 C -18.947,-18.884 -17.533,-12.488 -17.297,-11.545 C -17.863,-10.814 -18.25,-7.907 -16.849,-7.88 C -16.988,-8.182 -17.232,-8.546 -17.06,-8.886 C -16.549,-8.518 -16.068,-8.619 -15.655,-9.053 C -12.029,-5.035 -8.126,-3.047 -3.047,-1.46 C -2.808,-0.809 -2.668,-0.492 -1.94,-0.348 C -1.545,0.254 -0.569,0.568 0,0 M -1.581,-1.363 L -1.892,-1.259 C -2.289,-1.348 -2.436,-1.822 -2.559,-2.153 C -8.058,-3.831 -11.827,-6.032 -15.609,-10.414 C -16.789,-8.241 -17.517,-10.16 -16.276,-11.388 C -16.637,-12.864 -17.924,-19.9 -18.64,-20.576 C -19.979,-21.846 -21.852,-22.466 -23.177,-23.665 L -23.13,-23.891 C -22.92,-23.92 -22.66,-23.816 -22.468,-23.741 C -21.188,-23.249 -19.096,-22.062 -18.063,-21.168 C -16.877,-20.147 -16.131,-14.752 -15.902,-13.685 C -15.72,-12.805 -15.516,-11.719 -14.946,-11.009 C -11.836,-7.14 -7.626,-4.164 -2.794,-2.915 C -2.253,-2.774 -1.141,-2.052 -1.581,-1.363 M -2.943,-5.149 L -3.151,-4.967 C -3.398,-5.025 -3.54,-5.345 -3.622,-5.562 C -4.429,-7.661 -3.898,-9.892 -3.946,-12.043 C -3.953,-12.343 -4.146,-12.725 -4.466,-12.389 C -4.821,-12.019 -5.106,-10.51 -5.188,-9.972 C -5.268,-9.449 -5.304,-6.257 -5.381,-6.153 C -6.52,-6.096 -5.965,-11.028 -6.018,-11.707 L -6.237,-11.861 C -7.113,-11.787 -7.375,-8.025 -7.359,-7.325 L -7.585,-7.159 C -8.591,-7.304 -7.289,-11.975 -8.279,-11.128 C -8.807,-10.672 -9.138,-8.967 -9.299,-8.285 C -10.039,-8.496 -9.029,-10.981 -9.921,-10.9 C -10.125,-10.879 -10.267,-10.639 -10.346,-10.475 C -10.511,-10.138 -10.519,-9.725 -10.76,-9.424 L -10.983,-9.501 C -11.035,-9.824 -11.08,-10.154 -11.144,-10.475 C -11.238,-10.915 -12.121,-10.36 -12.047,-11.023 C -12.014,-11.317 -9.327,-11.842 -8.867,-11.98 C -6.552,-12.681 -4.404,-13.764 -2.393,-15.097 C -2.076,-15.312 -1.69,-15.861 -1.272,-15.768 C -0.11,-15.503 -1.545,-14.532 -1.686,-14.249 C -3.157,-11.303 -3.577,-8.387 -2.943,-5.149 M -50.219,-7.304 L -49.998,-7.32 C -49.862,-7.082 -49.697,-6.821 -49.422,-6.73 C -49.257,-6.673 -49.051,-6.673 -48.904,-6.774 C -48.666,-6.935 -48.982,-7.35 -48.697,-7.456 C -48.476,-7.546 -47.803,-7.288 -47.424,-7.474 C -46.785,-7.786 -46.867,-7.998 -46.049,-7.931 C -45.672,-7.9 -45.464,-8.089 -45.269,-8.37 C -44.958,-8.822 -44.576,-8.414 -44.205,-8.435 C -43.902,-8.448 -42.991,-8.97 -42.651,-9.117 C -41.351,-9.678 -38.976,-9.667 -38.395,-9.969 C -38.237,-10.049 -38.194,-10.172 -38.231,-10.349 C -38.321,-10.756 -38.922,-11.083 -39.281,-11.216 C -40.053,-11.497 -41,-11.582 -41.808,-11.719 C -44.018,-12.087 -45.835,-13.252 -48.166,-13.3 C -48.48,-13.306 -48.828,-13.252 -49.079,-13.482 C -48.323,-14.03 -41.594,-12.877 -41.176,-12.343 C -40.368,-11.326 -39.64,-12.576 -38.929,-12.57 C -38.132,-12.566 -39.099,-11.787 -38.766,-11.443 C -38.186,-10.849 -37.202,-11.556 -36.564,-11.034 L -36.578,-10.713 C -38.028,-9.852 -37.406,-9.951 -36.489,-9.224 C -35.801,-8.677 -35.817,-7.442 -36.519,-7.825 C -37.056,-9.133 -40,-6.581 -40.837,-6.379 C -42.53,-5.968 -43.423,-7.28 -44.085,-7.369 C -44.505,-7.422 -46.973,-7.059 -47.415,-6.91 C -48.044,-6.694 -48.867,-5.873 -49.583,-5.998 C -50.095,-6.088 -50.742,-6.858 -50.219,-7.304 M -32.558,-7.691 C -31.588,-8.34 -30.834,-9.185 -30.558,-10.125 C -30.44,-10.517 -30.582,-10.94 -30.395,-11.324 L -30.081,-11.237 C -28.874,-9.783 -30.12,-7.762 -32.558,-7.691 M -29.38,-7.505 C -27.393,-9.299 -28.613,-10.053 -28.874,-11.51 C -26.931,-11.876 -26.188,-7.816 -29.38,-7.505 M -26.316,-8.039 C -25.62,-9.397 -25.702,-10.751 -26.813,-11.941 C -26.934,-12.072 -27.501,-12.486 -27.384,-12.648 C -26.809,-13.447 -24.784,-11.319 -24.643,-10.62 C -24.41,-9.522 -25.09,-8.548 -26.316,-8.039 M -33.963,-8.417 L -34.213,-8.448 C -34.348,-9.018 -32.642,-11.207 -32.232,-10.652 C -31.815,-10.089 -33.494,-8.619 -33.963,-8.417 M -23.311,-9.304 C -23.338,-9.887 -23.301,-10.475 -23.399,-11.052 C -24.412,-17.378 -35.824,-16.327 -36.906,-22.02 C -36.693,-21.909 -36.503,-21.804 -36.26,-21.837 C -36.372,-23.299 -37.312,-23.996 -36.568,-25.673 C -36.268,-25.03 -36.021,-24.343 -35.444,-23.891 L -35.22,-23.955 C -35.319,-24.582 -36.03,-27.11 -35.49,-27.512 C -35.184,-27.055 -34.902,-26.185 -34.276,-26.081 L -34.129,-26.339 L -34.571,-28.335 C -34.817,-29.41 -34.726,-30.531 -34.942,-31.587 C -35.152,-32.619 -35.653,-33.722 -35.946,-34.752 C -36.588,-37.011 -36.98,-39.273 -37.171,-41.613 C -37.252,-42.554 -37.196,-43.595 -37.333,-44.517 C -37.386,-44.836 -38.713,-47.725 -38.934,-47.942 C -39.884,-48.87 -41.592,-48.464 -42.714,-48.217 L -42.729,-48.457 C -42.274,-48.567 -41.781,-48.663 -41.343,-48.826 C -40.854,-49 -41.483,-49.225 -41.31,-49.584 C -40.839,-49.372 -39.051,-48.348 -38.517,-48.64 C -38.194,-48.822 -38.11,-49.285 -37.633,-49.128 C -37.566,-48.494 -37.97,-47.883 -37.767,-47.258 C -37.621,-46.818 -36.639,-45.171 -36.623,-44.946 C -36.574,-43.962 -36.558,-42.993 -36.481,-42.007 C -36.462,-41.815 -36.366,-41.14 -36.228,-41.02 C -36.001,-40.822 -35.926,-41.328 -35.653,-41.246 L -35.49,-40.987 C -35.482,-40.269 -35.732,-38.509 -35.28,-37.947 C -35.237,-37.892 -35.049,-37.831 -34.985,-37.87 C -34.448,-38.188 -34.321,-39.382 -34.026,-39.362 C -33.925,-39.354 -33.843,-39.088 -33.833,-39.013 C -33.667,-37.951 -34.136,-36.806 -33.892,-35.74 C -33.826,-35.442 -33.608,-34.988 -33.255,-34.951 C -32.919,-34.913 -32.899,-35.378 -32.576,-35.332 C -32.283,-34.752 -33.023,-30.75 -31.878,-30.25 L -31.688,-30.432 C -31.597,-31.101 -31.588,-32.993 -30.992,-33.352 C -30.854,-32.907 -30.471,-31.15 -29.872,-31.16 L -29.753,-31.39 C -29.854,-32.059 -30.205,-35.514 -29.604,-35.756 C -29.43,-35.028 -29.243,-34.258 -28.955,-33.565 C -28.278,-31.929 -26.851,-30.58 -25.371,-29.653 C -25.056,-29.453 -24.552,-29.271 -24.283,-29.048 C -24.22,-28.993 -24.162,-28.901 -24.108,-28.836 C -25.358,-27.722 -28.07,-29.809 -29.175,-29.837 C -28.891,-28.647 -26.437,-27.425 -25.393,-26.918 L -25.378,-26.72 C -27.008,-26.194 -29.102,-27.229 -30.479,-27.998 C -30.551,-28.037 -30.709,-28.047 -30.757,-27.965 C -31.266,-27.184 -26.881,-25.212 -26.71,-24.771 C -28.577,-24.585 -29.917,-25.184 -31.574,-25.898 C -31.717,-25.962 -31.836,-25.871 -31.866,-25.715 C -30.763,-24.506 -29.309,-23.704 -27.803,-23.101 C -28.756,-22.648 -31.634,-23.459 -32.517,-24.027 L -32.754,-24.027 L -32.798,-23.83 C -31.581,-22.389 -29.82,-21.814 -28.159,-21.063 C -29.514,-21.105 -30.885,-21.208 -32.192,-21.611 C -32.533,-21.714 -32.858,-21.876 -33.211,-21.943 L -33.332,-21.746 C -31.399,-19.984 -29.406,-20.236 -27.433,-19.099 C -29.273,-19.195 -31.119,-19.311 -32.946,-19.57 C -31.915,-18.193 -22.279,-17.049 -22.468,-14.855 C -24.102,-16.316 -27.797,-17.013 -29.947,-17.227 C -29.947,-17.227 -21.81,-14.695 -22.48,-11.023 C -22.592,-10.397 -22.856,-9.758 -23.311,-9.304 M -33.944,-10.668 C -34.213,-10.289 -35.718,-9.379 -35.588,-10.365 C -35.46,-11.358 -33.351,-11.524 -33.944,-10.668 M -12.536,-13.229 C -12.973,-12.57 -13.533,-14.191 -13.571,-14.475 C -13.636,-15.032 -10.995,-18.869 -10.54,-19.616 C -9.179,-21.855 -7.741,-23.955 -7.007,-26.493 C -6.902,-26.853 -6.938,-27.799 -6.4,-27.799 C -6.187,-27.799 -5.963,-27.665 -5.884,-27.467 C -5.696,-26.991 -6.106,-26.727 -6.279,-26.372 C -6.558,-25.824 -6.424,-23.92 -6.354,-23.269 C -6.1,-20.845 -4.903,-18.835 -3.739,-16.756 C -3.694,-16.669 -3.583,-16.435 -3.71,-16.362 C -3.827,-16.292 -4.165,-16.587 -4.241,-16.665 C -5.821,-18.266 -6.412,-21.059 -7.319,-22.159 C -7.648,-22.164 -7.728,-21.86 -7.7,-21.581 C -7.504,-19.441 -6.154,-17.718 -5.291,-15.861 C -5.236,-15.734 -5.391,-15.579 -5.487,-15.541 C -6.613,-16.321 -7.859,-19.011 -8.517,-20.258 C -8.638,-20.489 -8.791,-20.618 -9.031,-20.439 C -9.481,-19.243 -7.161,-15.989 -7.05,-14.687 C -8.078,-15.15 -9.713,-18.894 -10.053,-18.889 L -10.216,-18.614 C -10.092,-17.015 -8.85,-15.395 -8.824,-14.216 C -9.807,-14.441 -10.649,-17.845 -11.259,-16.877 C -11.465,-15.794 -10.76,-14.97 -10.492,-13.988 C -10.464,-13.876 -10.438,-13.688 -10.552,-13.608 C -10.997,-13.286 -12.267,-16.533 -12.698,-15.145 C -12.817,-14.76 -12.511,-13.736 -12.536,-13.229 M -14.072,-18.916 C -14.362,-18.942 -14.467,-19.209 -14.545,-19.452 C -14.985,-20.82 -14.35,-27.378 -14.975,-27.662 C -15.622,-27.959 -15.859,-25.129 -15.921,-24.713 C -16.081,-23.578 -16.077,-22.425 -16.229,-21.289 L -16.45,-21.427 C -17.131,-22.838 -16.478,-27.22 -16.658,-27.479 C -16.948,-27.888 -20.133,-27.044 -21.358,-27.739 L -21.329,-27.985 C -20.964,-28.083 -20.576,-27.985 -20.207,-27.985 C -18.755,-27.985 -17.731,-28.305 -16.423,-28.889 C -16.297,-28.946 -15.646,-29.264 -15.582,-29.276 C -15.516,-29.287 -15.434,-29.276 -15.375,-29.276 C -12.653,-26.898 -11.786,-26.755 -8.294,-26.203 C -8.267,-25.805 -8.529,-25.061 -8.913,-24.883 C -9.302,-24.698 -9.668,-26.315 -10.023,-25.305 C -10.089,-25.123 -10.152,-23.593 -10.216,-23.193 L -10.468,-23.177 C -10.658,-23.697 -10.74,-25.652 -10.94,-25.824 L -11.215,-25.748 C -11.754,-24.736 -11.736,-21.493 -11.867,-20.181 L -12.095,-20.028 C -12.881,-20.471 -12.267,-24.848 -12.565,-25.733 C -12.608,-25.873 -12.742,-25.951 -12.887,-25.915 C -13.868,-25.669 -14.065,-19.923 -14.072,-18.916 M -17.776,-26.339 C -18.21,-25.352 -17.888,-24.091 -18.295,-23.253 C -18.388,-23.064 -18.684,-23.218 -18.772,-23.313 C -19.361,-23.942 -19.375,-26.848 -17.776,-26.339 M -20.474,-26.277 L -20.178,-26.014 C -20.219,-25.542 -20.12,-24.84 -20.265,-24.403 C -20.622,-23.35 -22.013,-25.997 -20.474,-26.277 M -50.229,-23.18 C -49.385,-23.571 -49.231,-21.99 -49.532,-21.957 C -50.247,-21.888 -50.506,-22.798 -50.229,-23.18 M -37.936,-26.365 C -39.515,-26.328 -41.081,-26.495 -42.642,-26.796 C -43.23,-26.911 -44.623,-27.412 -45.121,-27.317 C -46.187,-27.11 -48.098,-26.486 -49.101,-26.035 C -49.917,-25.675 -50.631,-24.893 -51.46,-24.486 C -51.43,-24.803 -51.235,-25.067 -51.055,-25.301 C -51.094,-25.544 -51.33,-25.623 -51.317,-25.913 C -50.816,-25.871 -49.888,-25.632 -49.834,-26.5 C -49.817,-26.742 -50.193,-26.937 -50.067,-27.162 C -48.109,-26.531 -46.572,-27.642 -44.694,-28.357 C -44.694,-28.605 -45.045,-28.859 -45.171,-29.069 C -45.092,-29.218 -44.907,-29.218 -44.767,-29.188 C -43.382,-28.884 -42.125,-27.062 -40.525,-27.575 L -40.397,-27.806 C -40.584,-28.308 -41.12,-28.553 -41.255,-29.084 L -41.071,-29.171 C -40.404,-29.021 -39.353,-28.203 -38.889,-28.174 C -37.664,-28.083 -37.956,-30.622 -37.068,-30.295 C -37.2,-29.576 -37.234,-28.647 -37.424,-27.951 C -37.572,-27.857 -37.737,-27.942 -37.885,-27.864 C -37.988,-27.373 -37.916,-26.863 -37.936,-26.365 M -52.366,-22.98 C -52.41,-22.637 -52.159,-21.668 -52.362,-21.624 C -53.257,-21.418 -53.506,-23.665 -52.366,-22.98 M -52.217,-26.43 C -52.138,-26.071 -53.53,-25.234 -53.629,-26.189 C -53.677,-26.668 -52.418,-27.356 -52.217,-26.43 M -21.408,-33.77 C -22.295,-33.306 -23.608,-34.009 -24.378,-34.434 C -26.869,-35.824 -27.811,-38.398 -27.48,-41.134 C -27.445,-41.386 -27.416,-41.63 -27.217,-41.813 L -26.972,-41.724 C -25.715,-37.419 -24.615,-36.641 -21.408,-33.77 M -50.279,-28.927 L -50.575,-28.843 C -51.233,-29.163 -50.476,-30.834 -49.762,-30.246 C -49.924,-29.805 -50.173,-29.384 -50.279,-28.927 M -12.786,-34.701 C -12.181,-35.181 -11.531,-35.671 -11.173,-36.374 C -11.035,-36.65 -10.995,-36.96 -10.687,-37.106 C -10.389,-35.217 -12.322,-34.226 -12.786,-34.701 M -10.023,-35.13 C -9.627,-36.206 -9.202,-37.15 -9.138,-38.322 C -8.296,-37.853 -9.085,-34.996 -10.023,-35.13 M -20.522,-36.96 C -24.864,-36.459 -26.513,-41.937 -25.669,-44.832 L -25.328,-44.939 C -25.194,-44.39 -25.153,-43.823 -25.045,-43.275 C -24.507,-40.631 -22.709,-38.716 -20.522,-36.96 M -12.517,-37.131 C -12.902,-34.864 -15.294,-35.676 -15.181,-36.426 C -13.823,-36.094 -13.655,-36.327 -12.517,-37.131 M -7.523,-36.986 C -7.632,-36.984 -7.819,-37.026 -7.88,-37.139 C -8.183,-37.716 -8.181,-38.877 -8.412,-39.583 C -8.529,-39.959 -8.734,-40.307 -8.807,-40.698 L -8.615,-40.758 C -7.398,-39.993 -7.579,-38.181 -7.523,-36.986 M -10.601,-42.387 C -8.548,-39.621 -11.085,-36.616 -12.77,-37.903 C -14.743,-39.408 -12.127,-41.866 -10.601,-42.387 M -13.847,-37.51 C -14.919,-36.544 -16.95,-38.157 -16.21,-39.503 C -15.278,-38.385 -15.365,-38.122 -13.847,-37.51 M -14.516,-39.262 C -15.375,-39.05 -16.041,-41.181 -14.709,-42.186 C -14.54,-41.25 -15.179,-41.048 -14.516,-39.262 M -6.416,-39.619 C -6.513,-39.316 -6.763,-39.706 -6.83,-39.798 C -7.577,-40.825 -8.142,-41.975 -9.149,-42.797 C -9.186,-42.824 -9.36,-42.943 -9.27,-43.009 C -9.149,-43.092 -8.959,-43.158 -8.824,-43.223 C -7.648,-42.843 -6.623,-40.765 -6.416,-39.619 M -12.624,-43.644 C -13.352,-42.841 -13.493,-42.341 -13.761,-41.332 C -14.086,-40.105 -14.733,-44.225 -12.624,-43.644 M -20.351,-40.482 C -20.592,-40.319 -20.992,-40.461 -21.253,-40.531 C -23.483,-41.145 -24.866,-44.468 -23.08,-46.389 C -23.203,-43.9 -22.091,-42.479 -20.351,-40.482 M -6.03,-42.397 C -6.374,-42.455 -7.88,-43.312 -8.1,-43.554 C -7.855,-43.662 -7.626,-43.846 -7.347,-43.86 C -6.796,-43.505 -6.434,-42.9 -6.03,-42.397 M -11.838,-42.853 L -12.047,-42.824 C -12.114,-43.841 -11.019,-45.002 -9.978,-44.637 L -10.067,-44.406 C -10.798,-44.099 -11.386,-43.49 -11.838,-42.853 M -19.985,-48.556 C -20.563,-47.463 -20.609,-46.293 -20.261,-45.169 C -20.171,-44.891 -19.145,-43.352 -19.939,-43.437 C -22.718,-43.737 -22.115,-48.688 -19.985,-48.556 M -9.813,-43.786 C -9.769,-45.124 -6.253,-45.914 -5.35,-47.196 C -4.654,-48.18 -5.404,-49.041 -5.35,-50.011 C -4.946,-49.766 -4.571,-49.464 -4.288,-49.08 L -4.583,-49.08 C -4.73,-48.962 -4.587,-48.7 -4.551,-48.549 C -4.357,-47.646 -4.699,-46.834 -5.409,-46.25 C -6.577,-45.3 -8.168,-45 -9.327,-44.015 C -9.481,-43.886 -9.576,-43.696 -9.813,-43.786 M -12.019,-45.508 C -11.736,-46.277 -9.584,-47.256 -9.166,-46.466 C -9.556,-46.144 -10.913,-45.809 -11.486,-45.569 C -11.627,-45.508 -11.901,-45.326 -12.019,-45.508 M -42.274,-47.284 C -42.166,-46.988 -42.455,-46.638 -42.574,-46.369 C -43.315,-44.707 -43.614,-47.685 -42.274,-47.284 M -10.395,-48.375 C -12.363,-47.625 -12.322,-46.716 -13.131,-46.186 C -13.267,-46.098 -13.4,-46.097 -13.511,-46.225 C -14.263,-47.076 -11.247,-49.614 -10.395,-48.375 M -16.862,-49.733 L -16.681,-49.518 C -17.566,-48.19 -17.675,-46.941 -18.072,-45.482 C -18.118,-45.311 -18.242,-45.084 -18.459,-45.089 C -19.701,-45.111 -18.71,-50.055 -16.862,-49.733 M -15.702,-45.957 L -15.987,-46.308 C -16.157,-47.993 -14.439,-50.003 -12.928,-49.212 C -13.924,-48.478 -14.792,-47.522 -15.355,-46.327 C -15.431,-46.166 -15.511,-45.955 -15.702,-45.957 M -43.496,-48.841 C -43.776,-48.742 -44.505,-48.464 -44.798,-48.478 L -44.883,-48.801 C -44.705,-49.353 -43.826,-49.576 -43.458,-49.138 L -43.496,-48.841 z M -37.325,-50.27 C -37.605,-51.172 -35.886,-51.758 -35.886,-50.929 C -36.049,-50.763 -37.178,-50.131 -37.325,-50.27 M -40.608,-50.729 C -40.523,-50.027 -41.834,-50.941 -41.864,-50.972 C -42.276,-51.403 -40.756,-51.86 -40.608,-50.729 M -22.646,-30.743 C -23.534,-30.28 -24.845,-30.982 -25.612,-31.412 C -28.102,-32.801 -29.046,-35.374 -28.715,-38.111 C -28.685,-38.36 -28.65,-38.609 -28.455,-38.787 L -28.207,-38.699 C -26.956,-34.394 -25.849,-33.618 -22.646,-30.743"
       id="path5885"
       style="fill:#a19562;fill-opacity:1;fill-rule:nonzero;stroke:none" />
  </g>
  <g
     transform="matrix(1.25,0,0,-1.25,464.13788,43.486875)"
     id="g5887">
    <path
       d="M 0,0 C 1.342,0.447 2.455,1.462 2.863,2.89 C 3.036,3.315 3.003,3.9 3.434,4.164 C 4.423,4.646 5.746,4.576 6.716,4.092 C 6.941,3.974 7.237,3.825 7.326,3.551 C 7.581,2.906 7.435,2.087 7.482,1.386 C 9.027,2.556 10.211,4.413 10.422,6.52 C 11.179,6.243 11.745,5.599 12.128,4.866 C 12.356,4.325 12.511,3.711 12.598,3.095 C 13.933,2.789 15.143,1.792 15.324,0.344 C 15.37,0.037 15.384,-0.376 15.28,-0.666 C 15.155,-0.753 15.115,-0.533 15.029,-0.488 C 14.702,-0.228 14.23,-0.067 13.751,-0.155 C 12.398,-0.708 11.345,-1.707 10.082,-2.41 C 9.502,-2.731 8.943,-3.021 8.306,-3.197 C 7.237,-3.435 5.961,-3.225 5.22,-2.468 L 5.095,-2.261 C 4.084,-3.197 2.962,-3.797 1.726,-4.308 C 1.064,-4.498 0.406,-4.695 -0.306,-4.761 L -0.281,-5.255 C -3.771,-5.263 -3.944,-9.227 -3.944,-9.227 L -6.596,-9.227 L -6.596,-10.041 L -11.348,-10.041 L -11.348,-9.227 L -13.941,-9.227 C -13.941,-9.227 -14.01,-5.263 -17.605,-5.255 L -17.581,-4.773 C -18.344,-4.72 -19.046,-4.51 -19.749,-4.308 C -20.985,-3.797 -22.108,-3.197 -23.115,-2.261 L -23.241,-2.468 C -23.98,-3.225 -25.261,-3.435 -26.328,-3.197 C -26.964,-3.021 -27.524,-2.731 -28.103,-2.41 C -29.369,-1.707 -30.42,-0.708 -31.773,-0.155 C -32.254,-0.067 -32.723,-0.228 -33.046,-0.488 C -33.137,-0.533 -33.177,-0.753 -33.308,-0.666 C -33.406,-0.376 -33.392,0.037 -33.348,0.344 C -33.164,1.792 -31.957,2.789 -30.619,3.095 C -30.531,3.711 -30.377,4.325 -30.149,4.866 C -29.767,5.599 -29.199,6.243 -28.446,6.52 C -28.231,4.413 -27.052,2.556 -25.5,1.386 C -25.46,2.087 -25.605,2.906 -25.347,3.551 C -25.261,3.825 -24.963,3.974 -24.737,4.092 C -23.771,4.576 -22.446,4.646 -21.451,4.164 C -21.023,3.9 -21.055,3.315 -20.881,2.89 C -20.463,1.41 -19.284,0.377 -17.876,-0.043 C -17.986,0.793 -18.091,1.342 -18.091,1.342 C -18.091,1.342 -14.427,0.864 -12.355,1.756 C -12.355,1.756 -11.847,-1.785 -8.935,-1.783 C -6,-1.78 -5.533,1.756 -5.533,1.756 C -3.456,0.864 0.202,1.342 0.202,1.342 C 0.202,1.342 0.107,0.814 0,0 M -29.598,2.717 C -29.598,2.453 -29.525,2.158 -29.525,1.909 C -29.665,1.894 -29.822,1.984 -29.98,1.967 C -30.774,1.997 -31.558,1.72 -31.985,1.029 C -31.882,1.029 -31.728,1.089 -31.6,1.089 C -31.032,1.004 -30.592,0.636 -30.12,0.344 C -29,-0.488 -27.951,-1.455 -26.654,-1.985 C -26.553,-1.822 -26.442,-1.661 -26.455,-1.471 C -27.195,-0.525 -28.361,0.037 -29.012,1.089 C -29.082,1.208 -29.055,1.368 -29,1.484 C -28.587,1.69 -26.127,-0.76 -25.904,-0.271 C -25.801,-0.168 -25.73,0.005 -25.713,0.166 C -27.206,1.251 -28.489,2.686 -29.082,4.501 C -29.451,4.018 -29.584,3.342 -29.598,2.717 M -11.331,-8.315 C -11.331,-8.315 -11.253,-7.121 -11.629,-3.586 C -11.629,-3.586 -12.752,-4.015 -13.542,-3.705 C -13.076,-3.324 -12.217,-2.331 -12.191,-1.375 C -12.191,-1.375 -13.22,-2.044 -14.496,-1.614 C -13.309,-0.915 -13.379,0.547 -13.379,0.547 C -15.018,0.214 -16.184,0.31 -16.184,0.31 C -16.184,0.31 -15.802,-1.853 -15.789,-4.331 C -12.758,-5.528 -12.918,-8.315 -12.918,-8.315 L -11.331,-8.315 z M -17.729,-1.305 C -19.529,-0.824 -21.028,0.244 -21.889,2.075 C -22.055,2.41 -22.23,2.832 -22.315,3.184 C -22.457,3.315 -22.557,3.392 -22.771,3.373 C -23.309,3.184 -22.665,2.022 -22.448,1.34 C -22.269,0.799 -21.461,-0.038 -21.688,-0.266 C -22.244,-0.398 -22.441,0.027 -22.699,0.304 C -23.268,1.125 -23.637,1.987 -23.951,2.969 C -24.065,3.143 -24.393,3.236 -24.434,2.779 C -24.345,1.987 -24.075,1.229 -23.752,0.527 C -22.576,-1.878 -20.185,-3.398 -17.55,-3.659 L -17.591,-3.068 C -18.719,-2.838 -19.803,-2.412 -20.698,-1.728 C -20.943,-1.555 -21.224,-1.306 -21.109,-0.952 C -21.079,-0.837 -20.906,-0.881 -20.838,-0.909 C -19.384,-1.727 -18.354,-2.168 -17.632,-2.197 L -17.729,-1.305 z M 11.2,4.501 C 10.598,2.686 9.323,1.251 7.831,0.166 C 7.845,0.005 7.916,-0.168 8.019,-0.271 C 8.246,-0.76 10.703,1.69 11.114,1.484 C 11.174,1.368 11.2,1.208 11.128,1.089 C 10.476,0.037 9.313,-0.525 8.569,-1.471 C 8.554,-1.661 8.672,-1.822 8.768,-1.985 C 10.063,-1.455 11.114,-0.488 12.237,0.344 C 12.706,0.636 13.145,1.004 13.713,1.089 C 13.841,1.089 13.997,1.029 14.098,1.029 C 13.673,1.72 12.889,1.997 12.094,1.967 C 11.939,1.984 11.784,1.894 11.641,1.909 C 11.641,2.158 11.712,2.453 11.712,2.717 C 11.697,3.342 11.567,4.018 11.2,4.501 M -4.967,-8.315 C -4.967,-8.315 -5.122,-5.528 -2.093,-4.331 C -2.083,-1.853 -1.702,0.31 -1.702,0.31 C -1.702,0.31 -2.869,0.214 -4.502,0.547 C -4.502,0.547 -4.575,-0.915 -3.388,-1.614 C -4.664,-2.044 -5.693,-1.375 -5.693,-1.375 C -5.662,-2.331 -4.806,-3.324 -4.343,-3.705 C -5.13,-4.015 -6.256,-3.586 -6.256,-3.586 C -6.629,-7.121 -6.553,-8.315 -6.553,-8.315 L -4.967,-8.315 z M -0.254,-2.197 C 0.469,-2.168 1.501,-1.727 2.949,-0.909 C 3.021,-0.881 3.195,-0.837 3.223,-0.952 C 3.338,-1.306 3.058,-1.555 2.807,-1.728 C 1.916,-2.412 0.83,-2.838 -0.295,-3.068 L -0.331,-3.659 C 2.301,-3.398 4.692,-1.878 5.867,0.527 C 6.193,1.229 6.463,1.987 6.552,2.779 C 6.511,3.236 6.18,3.143 6.064,2.969 C 5.749,1.987 5.381,1.125 4.817,0.304 C 4.559,0.027 4.357,-0.398 3.807,-0.266 C 3.576,-0.038 4.381,0.799 4.564,1.34 C 4.785,2.022 5.421,3.184 4.884,3.373 C 4.672,3.392 4.574,3.315 4.433,3.184 C 4.347,2.832 4.168,2.41 4.005,2.075 C 3.148,0.244 1.639,-0.824 -0.156,-1.305 L -0.254,-2.197 z M -8.959,-5.863 C -8.199,-5.863 -7.582,-5.108 -7.582,-4.177 C -7.582,-3.245 -8.199,-2.492 -8.959,-2.492 C -9.724,-2.492 -10.34,-3.245 -10.34,-4.177 C -10.34,-5.108 -9.724,-5.863 -8.959,-5.863"
       id="path5889"
       style="fill:#a19562;fill-opacity:1;fill-rule:nonzero;stroke:none" />
  </g>
  <g
     transform="matrix(1.25,0,0,-1.25,440.50662,61.750495)"
     id="g5891">
    <path
       d="M 0,0 L 0.501,-0.046 L 0.575,-0.304 C -0.107,-1.209 -3.731,-0.854 -4.496,-0.138 C -4.772,0.124 -4.912,0.511 -5.276,0.67 L -5.309,0.974 C -3.248,2.196 -1.719,1.234 0,0 M -3.607,-0.09 L -3.371,0.846 L -4.623,0.685 L -3.607,-0.09 z M -0.833,-0.161 L -1.89,0.533 L -2.086,-0.412 L -0.833,-0.161"
       id="path5893"
       style="fill:#a19562;fill-opacity:1;fill-rule:nonzero;stroke:none" />
  </g>
  <g
     transform="matrix(1.25,0,0,-1.25,452.88412,44.949375)"
     id="g5895">
    <path
       d="M 0,0 C -0.829,0.004 -2.682,1.008 -2.687,3.01 L -2.687,3.809 C -3.741,4.38 -4.678,5.288 -4.96,6.575 C -5.276,7.865 -4.891,9.313 -4.149,10.277 C -4.22,10.514 -4.178,10.717 -4.08,10.92 C -3.898,11.215 -3.524,11.419 -3.155,11.361 C -2.802,11.259 -2.603,11.624 -2.303,11.741 C -2.165,11.8 -2.047,11.902 -2.005,12.065 C -3.03,12.721 -4.511,13.332 -4.952,14.577 C -4.553,14.515 -4.07,14.601 -3.659,14.499 C -3.699,14.648 -3.802,14.692 -3.927,14.722 C -4.324,14.853 -4.765,14.956 -5.092,15.248 C -5.566,15.658 -5.973,16.287 -6.104,16.917 C -5.905,16.872 -5.707,16.756 -5.49,16.668 C -5.12,16.521 -4.682,16.549 -4.284,16.478 C -5.134,16.961 -6.173,17.166 -6.527,18.131 C -6.643,18.455 -6.769,18.803 -6.769,19.17 C -6.286,18.863 -5.663,18.938 -5.162,18.732 L -4.81,18.554 C -5.066,19.011 -5.263,19.652 -5.731,19.887 C -6.061,19.828 -6.361,19.665 -6.714,19.711 C -7.424,19.741 -8.035,20.311 -8.251,20.97 C -8.588,22.154 -8.063,23.357 -7.211,24.089 C -6.543,24.63 -5.647,24.891 -4.696,24.806 C -4.167,24.717 -3.52,24.458 -3.52,24.458 C -3.52,24.458 -2.739,27.421 0.063,27.426 C 3.154,27.421 3.652,24.458 3.652,24.458 C 3.652,24.458 4.3,24.717 4.827,24.806 C 5.778,24.891 6.678,24.63 7.341,24.089 C 8.197,23.357 8.722,22.154 8.382,20.97 C 8.168,20.311 7.557,19.741 6.845,19.711 C 6.49,19.665 6.191,19.828 5.866,19.887 C 5.394,19.652 5.196,19.011 4.942,18.554 L 5.298,18.732 C 5.793,18.938 6.418,18.863 6.903,19.17 C 6.903,18.803 6.775,18.455 6.658,18.131 C 6.306,17.166 5.265,16.961 4.415,16.478 C 4.815,16.549 5.257,16.521 5.625,16.668 C 5.836,16.756 6.037,16.872 6.233,16.917 C 6.107,16.287 5.692,15.658 5.222,15.248 C 4.9,14.956 4.455,14.853 4.06,14.722 C 3.929,14.692 3.834,14.648 3.79,14.499 C 4.205,14.601 4.684,14.515 5.083,14.577 C 4.646,13.332 3.171,12.721 2.143,12.065 C 2.184,11.902 2.301,11.8 2.44,11.741 C 2.739,11.624 2.942,11.259 3.299,11.361 C 3.664,11.419 4.038,11.215 4.221,10.92 C 4.319,10.717 4.361,10.514 4.29,10.277 C 5.028,9.313 5.41,7.865 5.1,6.575 C 4.819,5.288 3.881,4.38 2.829,3.809 L 2.829,3.01 C 2.819,1.048 1.081,0 0,0 M -2.947,10.118 C -3.09,10.072 -3.072,9.908 -3.055,9.779 C -2.957,9.486 -2.616,9.486 -2.376,9.342 C -2.817,8.739 -3.1,8.036 -3.188,7.261 C -3.241,6.251 -3.143,5.125 -2.217,4.654 C -2.066,4.611 -1.951,4.481 -1.793,4.511 C -2.319,5.899 -2.133,7.629 -1.624,8.988 C -1.609,9.236 -1.365,9.062 -1.242,9.062 C -0.967,8.988 -0.64,9.016 -0.39,8.931 C -0.457,8.548 -0.541,8.182 -0.6,7.802 C -0.725,6.603 -0.655,5.288 -0.43,4.143 C -0.144,4.07 0.181,4.056 0.481,4.102 C 0.838,5.65 0.808,7.346 0.54,8.946 C 0.907,9.003 1.291,9.046 1.662,9.077 C 1.845,8.8 1.93,8.461 2.046,8.138 C 2.4,7.024 2.231,5.635 1.873,4.584 L 2.156,4.611 C 2.739,4.82 3.027,5.388 3.212,5.929 C 3.576,7.171 3.253,8.564 2.414,9.342 C 2.631,9.486 2.98,9.544 3.051,9.868 C 2.98,10.014 2.829,10.145 2.642,10.1 C 1.248,9.503 -0.613,9.428 -2.077,9.882 C -2.376,9.939 -2.605,10.158 -2.947,10.118 M -0.404,26.221 C -1.226,26.052 -1.881,25.555 -2.202,24.813 C -2.545,24.088 -2.345,23.107 -1.727,22.504 C -1.7,22.713 -1.649,22.851 -1.483,22.918 C -1.27,23.015 -1.078,22.905 -0.896,22.779 C -0.768,22.679 -0.703,22.491 -0.69,22.313 C -0.576,21.037 -0.955,19.66 -1.007,18.39 C -1.026,17.49 -0.989,15.954 -0.93,15.092 C -0.846,14.419 -0.798,13.734 -0.586,13.156 C -0.525,13.036 -0.451,12.92 -0.29,12.932 C -0.182,12.939 -0.18,13.062 -0.144,13.133 C -0.442,14.381 -0.43,16.371 -0.39,17.575 C -0.309,19.078 0.024,20.489 0.097,21.957 C 0.084,22.547 0.097,23.142 -0.239,23.616 C -0.415,23.781 -0.648,23.917 -0.903,23.909 C -1.143,23.895 -1.34,23.783 -1.644,23.514 C -1.7,23.605 -1.708,23.729 -1.743,23.837 C -1.754,24.412 -1.536,24.995 -1.009,25.243 C -0.56,25.523 0.138,25.53 0.619,25.317 C 1.366,24.998 1.68,24.257 1.679,23.347 C 1.605,22.048 1.069,21.256 0.856,20.014 C 0.43,18.174 0.36,15.042 0.65,13.104 C 0.697,13.024 0.76,12.905 0.871,12.954 C 1.009,12.98 0.999,13.114 1.044,13.216 C 1.028,14.068 1.113,15.723 1.167,16.554 C 1.332,17.835 1.307,19.018 1.636,20.258 C 1.907,21.433 2.664,22.609 2.521,23.879 C 2.434,24.423 2.272,24.87 1.956,25.304 C 1.396,25.938 0.548,26.347 -0.404,26.221 M 3.038,21.56 C 2.521,20.627 2.48,19.499 2.43,18.391 C 2.45,16.791 2.407,15.183 1.956,13.69 C 2.954,14.167 2.829,15.504 3.021,16.492 C 3.162,18.115 3.051,19.949 3.899,21.369 C 4.26,21.984 4.925,22.372 5.69,22.255 C 6.242,22.209 6.627,21.766 6.808,21.276 C 6.808,21.161 6.843,21.027 6.882,20.909 C 7.184,21.103 7.329,21.521 7.241,21.92 C 7.038,22.631 6.357,23.095 5.596,23.152 C 4.441,23.225 3.495,22.539 3.038,21.56 M -5.356,23.152 C -6.12,23.095 -6.801,22.631 -7.007,21.92 C -7.091,21.521 -6.949,21.103 -6.643,20.909 C -6.607,21.027 -6.567,21.161 -6.569,21.276 C -6.389,21.766 -6.008,22.209 -5.454,22.255 C -4.686,22.372 -4.02,21.984 -3.659,21.369 C -2.815,19.949 -2.923,18.115 -2.782,16.492 C -2.593,15.504 -2.714,14.167 -1.72,13.69 C -2.167,15.183 -2.208,16.791 -2.191,18.391 C -2.242,19.499 -2.284,20.627 -2.796,21.56 C -3.255,22.539 -4.205,23.225 -5.356,23.152 M -1.58,3.402 L -1.58,1.717 L -0.841,1.062 L -0.841,3.154 L -1.58,3.402"
       id="path5897"
       style="fill:#a19562;fill-opacity:1;fill-rule:nonzero;stroke:none" />
  </g>
  <g
     transform="matrix(1.25,0,0,-1.25,239.56412,56.254375)"
     id="g5899">
    <path
       d="M 0,0 C 2.981,2.781 6.818,3.517 8.564,1.64 C 10.315,-0.238 9.315,-4.011 6.331,-6.793 C 3.349,-9.576 -0.486,-10.308 -2.236,-8.436 C -3.985,-6.557 -2.982,-2.786 0,0"
       id="path5901"
       style="fill:#a19562;fill-opacity:1;fill-rule:nonzero;stroke:none" />
  </g>
  <g
     transform="matrix(1.25,0,0,-1.25,337.17425,76.564245)"
     id="g5903">
    <path
       d="M 0,0 C -1.398,1.65 -3.882,0.108 -5.501,-0.577 C -12.113,-4.564 -18.113,-9.99 -23.575,-16.101 C -26.452,-19.48 -29.483,-22.762 -30.887,-26.822 C -30.996,-27.473 -30.58,-28.311 -30.112,-28.631 C -28.385,-29.139 -26.956,-28.214 -25.448,-27.674 C -16.677,-23.472 -8.697,-14.844 -2.587,-6.902 C -1.327,-4.782 1.207,-2.09 0,0 M -152.924,-26.652 C -157.598,-24.854 -162.306,-23.165 -167.444,-22.449 C -170.858,-22.124 -174.777,-21.908 -177.329,-24.281 C -177.85,-24.84 -177.878,-25.323 -177.647,-25.835 C -176.569,-27.957 -174.131,-27.985 -172.117,-28.449 C -165.577,-29.277 -158.962,-28.27 -152.924,-26.652 M -67.818,40.898 L -68.433,41.62 C -71.091,43.165 -74.072,41.475 -76.412,40.251 C -88.737,32.959 -100.969,16.008 -108.697,4.504 C -106.756,4.831 -99.209,7.323 -94.066,10.567 C -84.971,15.633 -73.32,26.74 -68.433,36.265 C -67.895,37.665 -67.031,39.319 -67.818,40.898 M -104.239,-20.558 C -113.26,-27.747 -123.711,-31.916 -135.715,-30.657 C -139.74,-30.01 -143.691,-29.146 -147.573,-28.068 C -155.803,-30.404 -165.437,-31.987 -174.387,-30.046 C -176.615,-29.4 -179.561,-28.25 -180.064,-25.588 C -180.243,-23.183 -178.126,-21.207 -176.184,-20.235 C -165.761,-15.168 -152.821,-19.154 -142.687,-22.284 C -138.659,-19.334 -135.176,-15.384 -132.082,-11.573 L -125.519,-3.417 C -124.476,-1.908 -122.092,1.218 -122.092,1.218 C -132.765,1.757 -144.42,2.984 -150.889,12.256 C -154.014,17.288 -153.654,24.369 -150.564,29.33 C -144.061,38.855 -133.313,41.692 -122.457,42.339 C -115.7,42.52 -109.411,41.191 -103.555,39.069 C -103.555,39.069 -103.696,37.991 -103.803,37.453 C -112.325,39.607 -122.674,40.253 -131.155,37.379 C -138.201,35.331 -146.469,29.005 -147.259,21.063 C -148.012,15.78 -145.317,10.856 -140.681,8.053 C -134.893,4.492 -127.922,3.738 -120.735,3.525 C -111.748,15.348 -98.766,31.017 -86.403,39.031 C -81.407,41.979 -76.267,44.959 -70.049,44.71 C -68.539,44.637 -66.671,43.992 -65.63,42.337 C -63.615,39.353 -65.34,35.619 -66.777,32.923 C -73.142,21.855 -86.266,10.928 -96.941,5.965 C -101.325,4.096 -105.889,2.696 -110.563,1.581 C -115.847,-6.505 -119.804,-12.12 -127.518,-17.827 C -130.87,-20.307 -134.527,-22.284 -138.374,-23.725 C -131.186,-26.775 -120.869,-26.81 -113.825,-23.327 C -108.04,-20.596 -102.506,-16.249 -98.191,-10.818 L -87.281,2.984 L -75.98,2.984 L -99.378,-26.775 C -99.783,-27.31 -99.888,-27.801 -99.673,-28.234 C -98.818,-29.868 -95.865,-28.234 -95.865,-28.234 C -95.865,-28.234 -92.73,-27.034 -81.3,-16.747 C -77.667,-13.476 -74.434,-10.244 -71.378,-6.471 L -63.696,3.164 L -53.048,3.164 C -55.6,-0.144 -57.902,-3.272 -60.167,-6.434 C -54.705,-1.979 -49.276,2.48 -42.553,3.811 C -40,4.169 -37.561,3.379 -36.121,1.22 C -34.253,-1.762 -35.438,-5.684 -37.198,-8.338 L -39.461,-11.177 L -52.725,-26.598 C -53.121,-27.081 -53.078,-27.54 -52.687,-27.872 C -51.714,-28.541 -50.352,-27.421 -49.346,-27.102 C -44.387,-24.729 -40.335,-21.653 -36.091,-17.627 C -34.907,-16.298 -33.787,-14.126 -32.67,-12.76 C -25.878,-4.207 -16.677,1.689 -6.541,3.665 C -3.736,4.063 -0.291,4.491 1.795,2.299 C 2.409,1.545 2.552,0.573 2.514,-0.432 L 4.132,1.435 L 17.252,18.187 L 29.886,34.523 L 40.668,34.523 L 9.344,-6.076 L -6.612,-26.669 C -6.791,-27.027 -6.947,-27.479 -6.769,-27.835 C -6.345,-28.751 -4.637,-28.25 -3.736,-28.068 C 2.945,-26.02 8.697,-21.171 13.479,-15.454 L 30.512,6.219 L 23.845,6.223 L 26.239,9.091 L 32.817,9.091 C 32.817,9.091 52.205,34.195 52.564,34.556 L 63.343,34.556 L 43.918,9.236 L 59.896,9.266 L 57.337,6.262 L 41.619,6.254 L 15.959,-26.562 C 15.59,-27.064 15.558,-27.555 15.678,-27.878 C 16.01,-28.544 16.381,-28.746 17.257,-28.723 C 20.733,-28.67 23.653,-26.345 26.742,-23.901 C 30.16,-21.22 35.748,-15.753 35.748,-15.753 L 37.472,-17.547 C 31.867,-22.583 26.384,-28.586 20.453,-30.535 C 18.692,-31.218 14.962,-32.049 12.154,-30.404 C 9.383,-28.782 9.014,-25.869 11,-21.926 L 10.782,-21.96 C 4.814,-26.562 -0.971,-32.17 -9.128,-30.839 C -10.711,-30.549 -12.184,-29.22 -12.867,-27.747 C -13.551,-26.128 -13.624,-24.045 -13.12,-22.355 C -14.664,-23.398 -16.209,-24.837 -17.791,-25.916 C -22.356,-29.115 -28.057,-33.106 -33.911,-30.519 C -36.319,-29.261 -37.165,-26.27 -37.091,-23.65 C -37.02,-23.003 -36.946,-22.284 -36.841,-21.708 C -41.223,-25.303 -45.627,-28.267 -50.624,-30.35 C -52.717,-31.121 -57.894,-32.227 -60.473,-29.606 C -61.746,-28.054 -62.022,-26.722 -61.481,-24.28 C -60.763,-21.26 -54.235,-14.483 -54.235,-14.483 L -41.547,-0.18 C -41.547,-0.18 -40.985,0.457 -41.523,1.206 C -42.167,2.104 -43.496,1.348 -44.316,1.04 C -50.352,-1.474 -57.185,-7.047 -65.069,-14.93 C -69.812,-19.315 -78.461,-30.161 -78.461,-30.161 L -89.216,-30.169 L -81.046,-19.77 C -81.3,-19.447 -81.693,-19.911 -81.693,-19.911 C -81.693,-19.911 -89.925,-28.099 -95.42,-30.327 L -95.519,-30.365 C -97.611,-31.136 -102.8,-32.239 -105.378,-29.62 C -106.653,-28.068 -106.928,-26.739 -106.389,-24.294 C -105.793,-21.864 -104.239,-20.558 -104.239,-20.558"
       id="path5905"
       style="fill:#a19562;fill-opacity:1;fill-rule:nonzero;stroke:none" />
  </g>
</svg>
