<?xml version="1.0" encoding="UTF-8" standalone="no"?>
<!-- Created with Inkscape (http://www.inkscape.org/) -->

<svg
   xmlns:dc="http://purl.org/dc/elements/1.1/"
   xmlns:cc="http://creativecommons.org/ns#"
   xmlns:rdf="http://www.w3.org/1999/02/22-rdf-syntax-ns#"
   xmlns:svg="http://www.w3.org/2000/svg"
   xmlns="http://www.w3.org/2000/svg"
   xmlns:sodipodi="http://sodipodi.sourceforge.net/DTD/sodipodi-0.dtd"
   xmlns:inkscape="http://www.inkscape.org/namespaces/inkscape"
   width="131.30399"
   height="33.371498"
   viewBox="0 0 34.740844 8.8295418"
   version="1.1"
   id="svg39412"
   inkscape:version="0.92.0 r15299"
   sodipodi:docname="solo.svg">
  <defs
     id="defs39406">
    <clipPath
       id="clipPath37269"
       clipPathUnits="userSpaceOnUse">
      <path
         inkscape:connector-curvature="0"
         id="path37267"
         d="M 0,0 H 288 V 378 H 0 Z" />
    </clipPath>
    <clipPath
       id="clipPath37211"
       clipPathUnits="userSpaceOnUse">
      <path
         inkscape:connector-curvature="0"
         id="path37209"
         d="m 85.347,57.592 h 121.825 v 43.434 H 85.347 Z" />
    </clipPath>
    <clipPath
       id="clipPath37195"
       clipPathUnits="userSpaceOnUse">
      <path
         inkscape:connector-curvature="0"
         id="path37193"
         d="m 85.356,57.592 h 121.817 v 43.434 H 85.356 Z" />
    </clipPath>
    <clipPath
       id="clipPath37163"
       clipPathUnits="userSpaceOnUse">
      <path
         inkscape:connector-curvature="0"
         id="path37161"
         d="m 85.347,57.592 h 121.825 v 43.434 H 85.347 Z" />
    </clipPath>
  </defs>
  <sodipodi:namedview
     id="base"
     pagecolor="#ffffff"
     bordercolor="#666666"
     borderopacity="1.0"
     inkscape:pageopacity="0.0"
     inkscape:pageshadow="2"
     inkscape:zoom="6.8839024"
     inkscape:cx="65.151999"
     inkscape:cy="16.185751"
     inkscape:document-units="mm"
     inkscape:current-layer="layer1"
     showgrid="false"
     fit-margin-top="0"
     fit-margin-left="0"
     fit-margin-right="0"
     fit-margin-bottom="0"
     units="px"
     inkscape:window-width="1280"
     inkscape:window-height="744"
     inkscape:window-x="-4"
     inkscape:window-y="-4"
     inkscape:window-maximized="1" />
  <metadata
     id="metadata39409">
    <rdf:RDF>
      <cc:Work
         rdf:about="">
        <dc:format>image/svg+xml</dc:format>
        <dc:type
           rdf:resource="http://purl.org/dc/dcmitype/StillImage" />
        <dc:title></dc:title>
      </cc:Work>
    </rdf:RDF>
  </metadata>
  <g
     inkscape:label="Layer 1"
     inkscape:groupmode="layer"
     id="layer1"
     transform="translate(4.9939039,-144.37816)">
    <g
       id="g39620"
       transform="translate(0.13229014,-0.1322899)">
      <path
         d="m 28.352412,150.67204 c 0.140053,-0.54328 0.148167,-1.10596 0.152047,-1.61819 l 0.0053,-0.36336 -0.0053,-0.37536 c -0.006,-0.71226 -0.01411,-1.51835 -0.380647,-2.23767 -0.384175,-0.75141 -1.184981,-1.29152 -2.040114,-1.37442 -0.610305,-0.0593 -1.55963,-0.0596 -2.187575,-0.0596 l -0.231775,-7e-4 c -0.0028,0 -0.233539,7e-4 -0.233539,7e-4 -0.62865,0 -1.57868,3.5e-4 -2.18828,0.0596 -0.855133,0.0829 -1.656292,0.62301 -2.040114,1.37442 -0.367242,0.71932 -0.374297,1.52506 -0.381,2.23697 l -0.0039,0.36477 0.0039,0.37535 c 0.0025,0.23566 0.0064,0.4819 0.02117,0.73167 H 15.80164 v -5.10364 h -3.12808 v 1.16628 c -0.418395,-0.63006 -1.140178,-1.07138 -1.905706,-1.14582 -0.609952,-0.0593 -1.559983,-0.0596 -2.1882802,-0.0596 l -0.2310695,-7e-4 c -0.00318,0 -0.2335389,7e-4 -0.2335389,7e-4 -0.6297083,0 -1.579386,3.5e-4 -2.188986,0.0596 -0.8554861,0.0829 -1.6555861,0.62301 -2.0397611,1.37442 -0.011994,0.024 -0.020461,0.0497 -0.032103,0.0734 v -1.4672 l -5.4744054,-0.004 c -1.1140722,-0.001 -2.3435027,0.15557 -3.0173083,1.32609 -0.2374194,0.41345 -0.3563055,0.87736 -0.3563055,1.35749 0,0.41239 0.0889,0.83538 0.2649361,1.24601 0.2307167,0.50588 0.6431139,0.91757 1.1475861,1.18427 -0.2141361,7.1e-4 -0.9539111,7.1e-4 -0.9539111,7.1e-4 v 2.94675 l 5.865636,-0.006 c 0.8717138,-0.001 1.5550444,-0.21802 2.0866805,-0.66076 0.2183694,-0.18803 0.3993444,-0.40851 0.5468055,-0.64805 0.4071056,0.67875 1.1606389,1.15782 1.96215,1.23578 0.6085416,0.0589 1.5557499,0.0593 2.1829888,0.06 l 0.2363611,3.6e-4 c 0.00388,0 0.2395361,-3.6e-4 0.2395361,-3.6e-4 0.6275917,-7e-4 1.5751528,-0.001 2.1829888,-0.06 0.765881,-0.0748 1.487311,-0.51576 1.905706,-1.14617 v 1.17863 h 7.210425 v -0.58844 c 0.388055,0.30657 0.8636,0.5073 1.358547,0.55598 0.607836,0.0589 1.555044,0.0593 2.182283,0.06 l 0.236361,3.6e-4 c 0.0032,0 0.239889,-3.6e-4 0.239889,-3.6e-4 0.627592,-7e-4 1.5748,-0.001 2.182636,-0.06 0.296686,-0.0282 0.585258,-0.1143 0.853722,-0.242 0.200025,0.46214 0.673806,0.78775 1.223434,0.78775 0.728839,0 1.321505,-0.57291 1.321505,-1.27741 0,-0.63959 -0.492478,-1.1691 -1.129947,-1.25871"
         style="fill:#ffffff;fill-opacity:1;fill-rule:evenodd;stroke:none;stroke-width:0.35277778"
         id="path37167"
         inkscape:connector-curvature="0" />
      <path
         d="m -2.5788252,149.54541 c -0.7246055,-0.0607 -1.4291027,-0.48331 -1.7307277,-1.14759 -0.2617611,-0.60395 -0.3439584,-1.37265 0.060325,-2.07362 0.4289777,-0.74578 1.1493499,-1.03047 2.5071916,-1.02976 0,0 4.8923221,0 4.900436,0.003 l -0.00106,1.74555 -5.3294137,-0.004 c -0.2137834,0 -0.3866445,0.17322 -0.3866445,0.387 0,0.21414 0.1728611,0.387 0.3866445,0.387 l 4.1426693,0.0413 c 0.7246056,0.0402 1.3687778,0.7045 1.6107833,1.32821 0.2610556,0.84596 0.080081,1.85244 -0.6441722,2.47615 -0.4833055,0.40252 -1.0862027,0.52282 -1.7116777,0.52352 l -5.2920194,0.006 v -1.74943 l 5.2232277,-0.002 c 0.2772833,0 0.5030611,-0.19615 0.5030611,-0.43815 0,-0.24166 -0.2257778,-0.4378 -0.5030611,-0.4378 z"
         style="fill:#b20029;fill-opacity:1;fill-rule:nonzero;stroke:none;stroke-width:0.35277778"
         id="path37171"
         inkscape:connector-curvature="0" />
      <path
         d="m 15.176339,150.43091 h 4.106686 v 1.71062 h -6.039203 v -6.84389 h 1.932517 z"
         style="fill:#b20029;fill-opacity:1;fill-rule:nonzero;stroke:none;stroke-width:0.35277778"
         id="path37175"
         inkscape:connector-curvature="0" />
      <path
         d="m 25.579544,146.75059 -0.7239,4.12856 h -2.340328 l -0.724252,-4.12856 c -0.07302,0.007 -0.253648,-0.10513 -0.09701,-0.20708 l 1.990725,7.1e-4 h 0.0011 l 1.991783,-7.1e-4 c 0.156281,0.10195 -0.02505,0.21449 -0.09807,0.20708 m 2.058458,-0.381 c -0.309033,-0.60537 -0.946502,-0.99342 -1.570566,-1.05516 -0.66675,-0.0649 -1.821039,-0.0557 -2.375959,-0.0575 -0.554566,0.002 -1.708502,-0.007 -2.375605,0.0575 -0.624064,0.0617 -1.261533,0.44979 -1.570214,1.05516 -0.358775,0.70132 -0.303036,1.5427 -0.321733,2.34632 0.0187,0.80293 -0.03704,1.63936 0.321733,2.34245 0.308681,0.60431 0.94615,0.99307 1.570214,1.05375 0.667103,0.0649 1.821039,0.0561 2.375605,0.0572 0.55492,-0.001 1.709209,0.008 2.375959,-0.0572 0.624064,-0.0607 1.261533,-0.44944 1.570566,-1.05375 0.358775,-0.70309 0.303742,-1.53952 0.321381,-2.34245 -0.01764,-0.80362 0.03739,-1.645 -0.321381,-2.34632"
         style="fill:#b20029;fill-opacity:1;fill-rule:nonzero;stroke:none;stroke-width:0.35277778"
         id="path37179"
         inkscape:connector-curvature="0" />
      <path
         d="m 28.216099,152.57714 c -0.352778,0 -0.636764,-0.26529 -0.636764,-0.59655 0,-0.32702 0.283986,-0.59231 0.636764,-0.59231 0.350308,0 0.634647,0.26529 0.634647,0.59231 0,0.33126 -0.284339,0.59655 -0.634647,0.59655 m 0,-1.27035 c -0.402167,0 -0.726369,0.30268 -0.726369,0.6738 0,0.37501 0.324202,0.67804 0.726369,0.67804 0.399344,0 0.721783,-0.30303 0.721783,-0.67804 0,-0.37112 -0.322439,-0.6738 -0.721783,-0.6738"
         style="fill:#b20029;fill-opacity:1;fill-rule:nonzero;stroke:none;stroke-width:0.35277778"
         id="path37183"
         inkscape:connector-curvature="0" />
      <path
         d="m 28.197084,151.93812 h -0.151342 v -0.26705 h 0.230717 c 0.100542,0 0.210961,0.0148 0.210961,0.13088 0,0.15381 -0.177094,0.13617 -0.290336,0.13617 m 0.390525,-0.13406 c 0,-0.0639 -0.03034,-0.13088 -0.09172,-0.16263 -0.05997,-0.0339 -0.128411,-0.0374 -0.196145,-0.0374 h -0.352425 v 0.7553 h 0.09842 v -0.3482 h 0.182034 l 0.231069,0.3482 h 0.117828 l -0.245181,-0.3482 c 0.144286,-0.004 0.256117,-0.0586 0.256117,-0.20708"
         style="fill:#b20029;fill-opacity:1;fill-rule:nonzero;stroke:none;stroke-width:0.35277778"
         id="path37187"
         inkscape:connector-curvature="0" />
      <path
         d="m 10.246975,150.35309 c -0.153458,0.30057 -0.4706055,0.49389 -0.7803444,0.52423 -0.3319639,0.0321 -0.9062861,0.0275 -1.1818056,0.0286 -0.2755194,-0.001 -0.8494888,0.004 -1.1814527,-0.0286 -0.3104444,-0.0303 -0.6268861,-0.22366 -0.7806972,-0.52423 -0.1781528,-0.34925 -0.1506361,-0.76517 -0.1598083,-1.16452 0.00917,-0.3997 -0.018344,-1.74237 0.1598083,-2.09127 0.1538111,-0.30092 0.4702528,-0.49424 0.7806972,-0.52458 0.3319639,-0.0325 0.9059333,-0.0279 1.1814527,-0.0286 0.2755195,7e-4 0.8498417,-0.004 1.1818056,0.0286 0.3097389,0.0303 0.6268864,0.22366 0.7803444,0.52458 0.178153,0.3489 0.150636,1.69157 0.159808,2.09127 -0.0092,0.39935 0.01835,0.81527 -0.159808,1.16452 m 1.984022,-3.98392 c -0.309033,-0.60466 -0.94615,-0.99342 -1.570214,-1.05445 -0.6667497,-0.0649 -1.8213913,-0.0564 -2.3763107,-0.0575 -0.5542139,0.001 -1.70815,-0.007 -2.3756055,0.0575 -0.6240639,0.061 -1.260475,0.44979 -1.5702139,1.05445 -0.358775,0.70203 -0.3026833,1.54305 -0.3210278,2.34633 0.018344,0.80327 -0.037747,1.64006 0.3210278,2.34244 0.3097389,0.60431 0.94615,0.99342 1.5702139,1.0541 0.6674555,0.0649 1.8213916,0.0564 2.3756055,0.0575 0.5549194,-0.001 1.709561,0.007 2.3763107,-0.0575 0.624064,-0.0607 1.261181,-0.44979 1.570214,-1.0541 0.358422,-0.70238 0.303036,-1.53917 0.321028,-2.34244 -0.01799,-0.80328 0.03739,-1.6443 -0.321028,-2.34633"
         style="fill:#b20029;fill-opacity:1;fill-rule:nonzero;stroke:none;stroke-width:0.35277778"
         id="path37199"
         inkscape:connector-curvature="0" />
    </g>
  </g>
</svg>
